<svg width="20" height="25" viewBox="0 0 20 25" fill="none" xmlns="http://www.w3.org/2000/svg">
<path d="M15.6093 16.4568C15.5323 15.0878 14.9578 13.7941 13.9939 12.8189C13.03 11.8438 11.743 11.2544 10.375 11.1616V10.7676C10.375 10.6681 10.3355 10.5727 10.2652 10.5024C10.1948 10.4321 10.0995 10.3926 10 10.3926C9.90054 10.3926 9.80516 10.4321 9.73483 10.5024C9.66451 10.5727 9.625 10.6681 9.625 10.7676V11.1616C8.25699 11.2544 6.97002 11.8438 6.0061 12.8189C5.04218 13.7941 4.46772 15.0878 4.39075 16.4568C4.138 16.5414 3.92364 16.7132 3.78606 16.9415C3.64847 17.1698 3.59665 17.4396 3.63988 17.7026C3.6831 17.9656 3.81855 18.2046 4.02197 18.3769C4.22538 18.5491 4.48347 18.6433 4.75 18.6426H15.25C15.5165 18.6433 15.7746 18.5491 15.978 18.3769C16.1814 18.2046 16.3169 17.9656 16.3601 17.7026C16.4034 17.4396 16.3515 17.1698 16.2139 16.9415C16.0764 16.7132 15.862 16.5414 15.6093 16.4568ZM10 11.8926C11.227 11.8945 12.4082 12.3587 13.3082 13.1927C14.2082 14.0267 14.7609 15.1693 14.856 16.3926H5.14401C5.23914 15.1693 5.79179 14.0267 6.69177 13.1927C7.59176 12.3587 8.77299 11.8945 10 11.8926ZM15.25 17.8926H4.75C4.65054 17.8926 4.55516 17.8531 4.48483 17.7827C4.41451 17.7124 4.375 17.617 4.375 17.5176C4.375 17.4181 4.41451 17.3227 4.48483 17.2524C4.55516 17.1821 4.65054 17.1426 4.75 17.1426H15.25C15.3495 17.1426 15.4448 17.1821 15.5152 17.2524C15.5855 17.3227 15.625 17.4181 15.625 17.5176C15.625 17.617 15.5855 17.7124 15.5152 17.7827C15.4448 17.8531 15.3495 17.8926 15.25 17.8926ZM19.3706 8.08562L18.64 3.33748C18.7532 3.23298 18.8437 3.10621 18.9056 2.96512C18.9676 2.82403 18.9997 2.67167 19 2.51758V1.76758C18.9997 1.46931 18.881 1.18335 18.6701 0.972445C18.4592 0.761537 18.1733 0.642906 17.875 0.642578H2.125C1.82673 0.642906 1.54077 0.761537 1.32987 0.972445C1.11896 1.18335 1.00033 1.46931 1 1.76758V2.51758C1.0003 2.67167 1.03244 2.82403 1.09438 2.96512C1.15633 3.10621 1.24676 3.23298 1.36 3.33748L0.629388 8.08562C0.626466 8.10446 0.624999 8.12351 0.625 8.14258V23.5176C0.625328 23.8158 0.743959 24.1018 0.954867 24.3127C1.16577 24.5236 1.45173 24.6423 1.75 24.6426H18.25C18.5483 24.6423 18.8342 24.5236 19.0451 24.3127C19.256 24.1018 19.3747 23.8158 19.375 23.5176V8.14258C19.375 8.12351 19.3735 8.10446 19.3706 8.08562ZM1.75 1.76758C1.75009 1.66815 1.78963 1.57282 1.85993 1.50251C1.93024 1.4322 2.02557 1.39267 2.125 1.39258H17.875C17.9744 1.39267 18.0698 1.4322 18.1401 1.50251C18.2104 1.57282 18.2499 1.66815 18.25 1.76758V2.51758C18.2499 2.61701 18.2104 2.71234 18.1401 2.78264C18.0698 2.85295 17.9744 2.89249 17.875 2.89258H11.125V2.14258C11.125 2.04312 11.0855 1.94774 11.0152 1.87741C10.9448 1.80709 10.8495 1.76758 10.75 1.76758H9.25C9.15054 1.76758 9.05516 1.80709 8.98483 1.87741C8.91451 1.94774 8.875 2.04312 8.875 2.14258V2.89258H2.125C2.02557 2.89249 1.93024 2.85295 1.85993 2.78264C1.78963 2.71234 1.75009 2.61701 1.75 2.51758V1.76758ZM10.375 2.51758V4.76758H9.625V2.51758H10.375ZM18.625 23.5176C18.6249 23.617 18.5854 23.7123 18.5151 23.7826C18.4448 23.853 18.3494 23.8925 18.25 23.8926H1.75C1.65057 23.8925 1.55524 23.853 1.48493 23.7826C1.41463 23.7123 1.37509 23.617 1.375 23.5176V8.17134L2.0719 3.64258H8.875V5.14258C8.875 5.24203 8.91451 5.33742 8.98483 5.40774C9.05516 5.47807 9.15054 5.51758 9.25 5.51758H10.75C10.8495 5.51758 10.9448 5.47807 11.0152 5.40774C11.0855 5.33742 11.125 5.24203 11.125 5.14258V3.64258H17.9281L18.625 8.17134V23.5176Z" fill="#992409"/>
</svg>
