<svg width="24" height="25" viewBox="0 0 24 25" fill="none"
    xmlns="http://www.w3.org/2000/svg">
    <path fill-rule="evenodd" clip-rule="evenodd" d="M21.0003 6.98825C21.0003 9.01685 19.3551 10.6621 17.3265 10.6621C15.2979 10.6621 13.6536 9.01685 13.6536 6.98825C13.6536 4.95965 15.2979 3.31445 17.3265 3.31445C19.3551 3.31445 21.0003 4.95965 21.0003 6.98825Z" stroke="#992409" stroke-width="1.5" stroke-linecap="round" stroke-linejoin="round"/>
    <path fill-rule="evenodd" clip-rule="evenodd" d="M10.3467 6.98825C10.3467 9.01685 8.7024 10.6621 6.6729 10.6621C4.6452 10.6621 3 9.01685 3 6.98825C3 4.95965 4.6452 3.31445 6.6729 3.31445C8.7024 3.31445 10.3467 4.95965 10.3467 6.98825Z" stroke="#992409" stroke-width="1.5" stroke-linecap="round" stroke-linejoin="round"/>
    <path fill-rule="evenodd" clip-rule="evenodd" d="M21.0003 17.5761C21.0003 19.6047 19.3551 21.249 17.3265 21.249C15.2979 21.249 13.6536 19.6047 13.6536 17.5761C13.6536 15.5475 15.2979 13.9023 17.3265 13.9023C19.3551 13.9023 21.0003 15.5475 21.0003 17.5761Z" stroke="#992409" stroke-width="1.5" stroke-linecap="round" stroke-linejoin="round"/>
    <path fill-rule="evenodd" clip-rule="evenodd" d="M10.3467 17.5761C10.3467 19.6047 8.7024 21.249 6.6729 21.249C4.6452 21.249 3 19.6047 3 17.5761C3 15.5475 4.6452 13.9023 6.6729 13.9023C8.7024 13.9023 10.3467 15.5475 10.3467 17.5761Z" stroke="#992409" stroke-width="1.5" stroke-linecap="round" stroke-linejoin="round"/>
</svg>
