<svg width="25" height="24" viewBox="0 0 25 24" fill="none" xmlns="http://www.w3.org/2000/svg">
<g clip-path="url(#clip0_1301_8106)">
<path d="M16.7705 9.95442L16.8854 10.2052L17.1589 10.2417C18.0511 10.3607 18.75 11.1371 18.75 11.9961C18.75 12.8551 18.0511 13.6315 17.1589 13.7505L16.8907 13.7862L16.7739 14.0304C16.0259 15.5944 14.3937 16.7461 12.5 16.7461C12.5003 16.7461 12.4874 16.7458 12.4538 16.7405C12.4211 16.7353 12.3845 16.7281 12.3356 16.7183C12.3305 16.7173 12.3252 16.7162 12.3196 16.7151C12.2393 16.6989 12.1015 16.6711 11.975 16.6711H11.745L11.5954 16.8457C11.2308 17.271 10.765 17.4961 10.25 17.4961C9.25114 17.4961 8.5 16.745 8.5 15.7461C8.5 15.5663 8.53333 15.4375 8.59135 15.2134C8.60466 15.162 8.61927 15.1056 8.63507 15.0424L8.6917 14.8158L8.55437 14.627C8.02292 13.8963 7.75 13.0268 7.75 11.9961C7.75 10.9653 8.02292 10.0959 8.55437 9.36518L8.6917 9.17635L8.63507 8.94983C8.61927 8.88661 8.60466 8.83019 8.59135 8.77878C8.53333 8.55468 8.5 8.42593 8.5 8.24609C8.5 7.24724 9.25114 6.49609 10.25 6.49609C10.765 6.49609 11.2308 6.72117 11.5954 7.14649L11.8494 7.44289L12.1986 7.26831C12.1975 7.26885 12.1977 7.26881 12.1993 7.26832C12.2052 7.26651 12.2314 7.25857 12.2873 7.25299C12.3525 7.24646 12.4222 7.24609 12.5 7.24609C14.4034 7.24609 16.0265 8.33114 16.7705 9.95442ZM12 15.7461V16.2461H12.5C14.1214 16.2461 15.3996 15.3853 16.1537 14.1283L16.3858 13.7417L16.025 13.4711C15.5367 13.1049 15.25 12.5718 15.25 11.9961C15.25 11.4204 15.5367 10.8873 16.025 10.5211L16.3858 10.2505L16.1537 9.86385C15.3996 8.60693 14.1214 7.74609 12.5 7.74609H12V8.24609C12 9.24495 11.2489 9.99609 10.25 9.99609C9.93357 9.99609 9.68076 9.93166 9.5 9.79609L9.04689 9.45626L8.76588 9.94802C8.41785 10.5571 8.25 11.2444 8.25 11.9961C8.25 12.7478 8.41785 13.4351 8.76588 14.0442L9.04689 14.5359L9.5 14.1961C9.68076 14.0605 9.93357 13.9961 10.25 13.9961C11.2489 13.9961 12 14.7472 12 15.7461ZM11.5 8.24609C11.5 7.90747 11.3849 7.58643 11.1473 7.34879C10.9097 7.11115 10.5886 6.99609 10.25 6.99609C9.91138 6.99609 9.59034 7.11115 9.3527 7.34879C9.11506 7.58643 9 7.90747 9 8.24609C9 8.58472 9.11506 8.90576 9.3527 9.1434C9.59034 9.38104 9.91138 9.49609 10.25 9.49609C10.5886 9.49609 10.9097 9.38104 11.1473 9.1434C11.3849 8.90576 11.5 8.58472 11.5 8.24609ZM9 15.7461C9 16.0847 9.11506 16.4058 9.3527 16.6434C9.59034 16.881 9.91138 16.9961 10.25 16.9961C10.5886 16.9961 10.9097 16.881 11.1473 16.6434C11.3849 16.4058 11.5 16.0847 11.5 15.7461C11.5 15.4075 11.3849 15.0864 11.1473 14.8488C10.9097 14.6112 10.5886 14.4961 10.25 14.4961C9.91138 14.4961 9.59034 14.6112 9.3527 14.8488C9.11506 15.0864 9 15.4075 9 15.7461ZM15.75 11.9961C15.75 12.3347 15.8651 12.6558 16.1027 12.8934C16.3403 13.131 16.6614 13.2461 17 13.2461C17.3386 13.2461 17.6597 13.131 17.8973 12.8934C18.1349 12.6558 18.25 12.3347 18.25 11.9961C18.25 11.6575 18.1349 11.3364 17.8973 11.0988C17.6597 10.8612 17.3386 10.7461 17 10.7461C16.6614 10.7461 16.3403 10.8612 16.1027 11.0988C15.8651 11.3364 15.75 11.6575 15.75 11.9961Z" fill="#6C707A" stroke="#6C707A"/>
<path d="M12.5 23.2445C12.35 23.2445 12.275 23.2445 12.125 23.1695L3.125 17.9195C2.9 17.7695 2.75 17.5445 2.75 17.2445V6.74453C2.75 6.44453 2.9 6.21953 3.125 6.06953L12.125 0.819531C12.35 0.669531 12.65 0.669531 12.875 0.819531L21.875 6.06953L21.125 7.34453L12.5 2.39453L4.25 7.19453V16.8695L12.5 21.6695L20.75 16.8695V11.2445H22.25V17.2445C22.25 17.5445 22.1 17.7695 21.875 17.9195L12.875 23.1695C12.725 23.2445 12.65 23.2445 12.5 23.2445Z" fill="#6C707A"/>
</g>
<defs>
<clipPath id="clip0_1301_8106">
<rect width="24" height="24" fill="white" transform="translate(0.5 -0.00390625)"/>
</clipPath>
</defs>
</svg>
