<svg width="619" height="307" viewBox="0 0 619 307" fill="none" xmlns="http://www.w3.org/2000/svg">
<rect x="1" y="1" width="617" height="305" rx="10" fill="#EFF4F5" stroke="#E4E4E7"/>
<line x1="19.5796" y1="268.5" x2="598.646" y2="268.5" stroke="#F4F4F5"/>
<line x1="19.5796" y1="228.5" x2="598.646" y2="228.5" stroke="#F4F4F5"/>
<line x1="19.5796" y1="188.5" x2="598.646" y2="188.5" stroke="#F4F4F5"/>
<line x1="19.5796" y1="148.5" x2="598.646" y2="148.5" stroke="#F4F4F5"/>
<line x1="19.5796" y1="108.5" x2="598.646" y2="108.5" stroke="#F4F4F5"/>
<mask id="mask0_6_58224" style="mask-type:alpha" maskUnits="userSpaceOnUse" x="20" y="64" width="572" height="183">
<rect x="20.4399" y="64" width="571.56" height="183" fill="white"/>
</mask>
<g mask="url(#mask0_6_58224)">
<path d="M19.1393 201.492C10.6202 206.14 4.23085 207.947 2.10107 208.27V247.969H602.698V102.73C593.942 113.059 573.023 132.553 559.392 127.905C542.354 122.096 523.186 123.064 510.407 127.905C497.629 132.746 489.82 139.524 475.621 140.492C461.423 141.461 465.682 136.619 443.674 133.715C421.667 130.81 412.438 158.889 401.789 166.635C391.14 174.381 364.163 172.445 354.224 166.635C344.285 160.826 335.766 158.889 327.957 158.889C320.147 158.889 320.147 165.667 308.789 166.635C297.43 167.604 286.071 157.921 270.453 158.889C254.834 159.857 233.537 178.254 217.208 179.223C200.88 180.191 210.819 174.381 187.391 172.445C163.964 170.508 145.506 195.683 130.597 201.492C115.689 207.302 93.6814 194.715 81.6127 190.842C69.5439 186.969 58.1851 201.492 48.9561 201.492C39.7271 201.492 29.7881 195.683 19.1393 201.492Z" fill="#EEF2FF" fill-opacity="0.5" stroke="#4F46E5" stroke-width="2"/>
<path d="M-37.2158 222.152H-62.085V248.779H598.113V151.953C597.336 155.181 595.703 162.12 595.393 164.056C595.004 166.477 588.01 172.771 584.512 169.866C581.015 166.961 573.632 166.477 569.746 167.929C565.86 169.382 566.638 166.477 559.255 164.056C551.872 161.636 549.54 169.382 545.654 170.834C541.769 172.286 535.94 169.382 533.22 166.477L533.103 166.352C530.399 163.463 526.864 159.685 517.288 158.731C507.573 157.763 505.631 172.771 501.745 178.096C497.859 183.421 488.922 180.517 486.59 179.548C484.259 178.58 482.316 175.191 474.933 178.096C467.55 181.001 460.555 191.167 451.618 191.652C442.681 192.136 434.909 184.39 428.692 184.39C422.474 184.39 424.417 185.842 415.869 188.263C407.32 190.683 392.554 184.39 387.502 181.969C382.451 179.548 375.845 181.969 372.348 184.39C368.85 186.81 356.416 187.294 352.919 185.842C349.421 184.39 339.318 181.001 336.987 184.39C334.655 187.779 324.164 181.969 321.055 181.969C317.946 181.969 319.501 178.58 311.341 176.644C303.18 174.707 297.74 184.39 295.409 185.842C293.077 187.294 288.803 184.874 284.917 181.969C281.031 179.064 265.099 176.159 255.774 178.58C246.448 181.001 245.671 188.263 239.453 189.231C233.236 190.199 230.516 196.977 227.407 196.977C224.299 196.977 222.356 196.977 219.636 195.04C216.916 193.104 210.31 195.04 207.59 196.977C204.87 198.913 200.207 199.882 194.766 200.366C189.326 200.85 186.218 196.493 181.943 195.04C177.669 193.588 171.84 192.62 160.96 193.104C150.08 193.588 150.468 202.302 139.2 205.691C127.931 209.08 119.771 204.723 111.999 203.271C104.227 201.818 97.6215 208.596 94.1243 211.017C90.627 213.437 82.8554 211.017 75.0838 208.596C67.3122 206.175 64.2036 211.017 63.0378 211.017C61.8721 211.017 56.432 217.31 50.2147 211.017C43.9974 204.723 41.2774 206.66 38.9459 206.66C36.6144 206.66 35.0601 210.048 31.5628 208.596C28.0656 207.144 28.0656 202.786 22.2369 203.271C16.4082 203.755 12.1338 213.921 10.1909 215.374C8.24804 216.826 3.97366 218.763 0.865017 219.247C-2.24362 219.731 -2.24362 217.31 -11.5695 216.342C-20.8955 215.374 -26.3356 222.152 -37.2158 222.152Z" fill="white" fill-opacity="0.04" stroke="#818CF8" stroke-width="2"/>
</g>
<path d="M20.028 282H19.053V272.666H24.409V273.511H20.028V277.151H23.798V277.996H20.028V282ZM28.3186 282.13C26.3946 282.13 25.1206 280.687 25.1206 278.516C25.1206 276.514 26.4466 275.019 28.2666 275.019C30.2166 275.019 31.4906 276.592 31.3346 278.789H26.0306C26.1086 280.414 26.9666 281.415 28.3056 281.415C29.4496 281.415 30.2426 280.778 30.4636 279.686H31.3606C31.0486 281.207 29.8916 282.13 28.3186 282.13ZM28.2536 275.721C27.0186 275.721 26.1476 276.67 26.0306 278.165H30.3856C30.3076 276.631 29.5146 275.721 28.2536 275.721ZM39.1176 278.568C39.1176 280.674 37.9346 282.13 36.1016 282.13C35.0486 282.13 34.1646 281.558 33.6836 280.557V282H32.8386V272.666H33.7486V276.592C34.1906 275.591 35.0616 275.019 36.1016 275.019C37.9346 275.019 39.1176 276.462 39.1176 278.568ZM38.1946 278.568C38.1946 276.826 37.2976 275.812 35.9586 275.812C34.6716 275.812 33.7356 276.813 33.7356 278.542C33.7356 280.258 34.6456 281.337 35.9586 281.337C37.2976 281.337 38.1946 280.31 38.1946 278.568Z" fill="#52525B"/>
<path d="M79.8284 282L76.4484 274.083V282H75.5384V272.666H76.7994L80.2574 280.804L83.7414 272.666H84.9894V282H84.0924V274.083L80.6864 282H79.8284ZM91.2381 282V280.752C90.8351 281.61 90.0031 282.13 88.9371 282.13C87.5201 282.13 86.5971 281.337 86.5971 280.102C86.5971 278.763 87.6631 278.061 89.7431 278.061C90.1591 278.061 90.4711 278.087 91.1471 278.139V277.567C91.1471 276.423 90.5361 275.747 89.4961 275.747C88.3781 275.747 87.6761 276.436 87.6631 277.554H86.8311C86.8701 276.033 87.9231 275.019 89.4831 275.019C91.0821 275.019 92.0181 275.955 92.0181 277.541V282H91.2381ZM87.4681 280.076C87.4681 280.908 88.1051 281.467 89.0671 281.467C90.3411 281.467 91.1471 280.635 91.1471 279.348V278.737C90.5621 278.685 90.1591 278.672 89.7821 278.672C88.2221 278.672 87.4681 279.127 87.4681 280.076ZM94.8423 278.334V282H93.9323V275.149H94.7773V276.709C95.2453 275.695 96.2593 275.045 97.3903 275.045V275.994C95.9473 275.942 94.8423 276.839 94.8423 278.334Z" fill="#52525B"/>
<path d="M136.467 282L135.492 279.413H131.137L130.149 282H129.187L132.814 272.666H133.88L137.494 282H136.467ZM133.321 273.706L131.436 278.62H135.18L133.321 273.706ZM145.117 278.568C145.117 280.687 143.934 282.13 142.114 282.13C141.087 282.13 140.216 281.571 139.748 280.596V284.509H138.838V275.149H139.683V276.631C140.151 275.617 141.061 275.019 142.114 275.019C143.934 275.019 145.117 276.475 145.117 278.568ZM144.194 278.568C144.194 276.839 143.297 275.812 141.958 275.812C140.684 275.812 139.735 276.826 139.735 278.568C139.735 280.271 140.658 281.337 141.958 281.337C143.297 281.337 144.194 280.323 144.194 278.568ZM147.492 278.334V282H146.582V275.149H147.427V276.709C147.895 275.695 148.909 275.045 150.04 275.045V275.994C148.597 275.942 147.492 276.839 147.492 278.334Z" fill="#52525B"/>
<path d="M184.048 282L180.668 274.083V282H179.758V272.666H181.019L184.477 280.804L187.961 272.666H189.209V282H188.312V274.083L184.906 282H184.048ZM195.457 282V280.752C195.054 281.61 194.222 282.13 193.156 282.13C191.739 282.13 190.816 281.337 190.816 280.102C190.816 278.763 191.882 278.061 193.962 278.061C194.378 278.061 194.69 278.087 195.366 278.139V277.567C195.366 276.423 194.755 275.747 193.715 275.747C192.597 275.747 191.895 276.436 191.882 277.554H191.05C191.089 276.033 192.142 275.019 193.702 275.019C195.301 275.019 196.237 275.955 196.237 277.541V282H195.457ZM191.687 280.076C191.687 280.908 192.324 281.467 193.286 281.467C194.56 281.467 195.366 280.635 195.366 279.348V278.737C194.781 278.685 194.378 278.672 194.001 278.672C192.441 278.672 191.687 279.127 191.687 280.076ZM203.226 275.149L199.716 284.509H198.741L199.742 281.909L197.025 275.149H198L200.21 280.817L202.303 275.149H203.226Z" fill="#52525B"/>
<path d="M238.436 272.666V278.906C238.436 281.038 237.214 282.195 235.303 282.195C233.483 282.195 232.287 281.051 232.196 279.231H233.171C233.249 280.57 234.094 281.324 235.303 281.324C236.59 281.324 237.461 280.583 237.461 278.984V272.666H238.436ZM244.795 279.231V275.149H245.692V282H244.847V280.765C244.496 281.558 243.664 282.13 242.663 282.13C241.272 282.13 240.349 281.337 240.349 279.608V275.149H241.259V279.413C241.259 280.804 241.948 281.337 242.91 281.337C244.002 281.337 244.795 280.453 244.795 279.231ZM248.573 278.009V282H247.663V275.149H248.508V276.436C248.95 275.591 249.782 275.019 250.77 275.019C252.2 275.019 253.123 275.929 253.123 277.554V282H252.213V277.866C252.213 276.553 251.615 275.812 250.497 275.812C249.431 275.812 248.573 276.735 248.573 278.009Z" fill="#52525B"/>
<path d="M291.683 272.666V278.906C291.683 281.038 290.461 282.195 288.55 282.195C286.73 282.195 285.534 281.051 285.443 279.231H286.418C286.496 280.57 287.341 281.324 288.55 281.324C289.837 281.324 290.708 280.583 290.708 278.984V272.666H291.683ZM298.042 279.231V275.149H298.939V282H298.094V280.765C297.743 281.558 296.911 282.13 295.91 282.13C294.519 282.13 293.596 281.337 293.596 279.608V275.149H294.506V279.413C294.506 280.804 295.195 281.337 296.157 281.337C297.249 281.337 298.042 280.453 298.042 279.231ZM301.82 282H300.91V272.666H301.82V282Z" fill="#52525B"/>
<path d="M338.369 282L337.394 279.413H333.039L332.051 282H331.089L334.716 272.666H335.782L339.396 282H338.369ZM335.223 273.706L333.338 278.62H337.082L335.223 273.706ZM344.867 279.231V275.149H345.764V282H344.919V280.765C344.568 281.558 343.736 282.13 342.735 282.13C341.344 282.13 340.421 281.337 340.421 279.608V275.149H341.331V279.413C341.331 280.804 342.02 281.337 342.982 281.337C344.074 281.337 344.867 280.453 344.867 279.231ZM350.322 284.652C348.58 284.652 347.488 283.742 347.41 282.208H348.281C348.359 283.326 349.087 283.924 350.309 283.924C351.661 283.924 352.376 283.209 352.376 281.857V280.427C351.96 281.389 351.128 281.948 350.114 281.948C348.385 281.948 347.228 280.557 347.228 278.477C347.228 276.397 348.372 275.019 350.101 275.019C351.128 275.019 351.986 275.604 352.428 276.605V275.149H353.273V281.844C353.273 283.612 352.194 284.652 350.322 284.652ZM348.138 278.477C348.138 280.154 348.931 281.168 350.244 281.168C351.531 281.168 352.389 280.128 352.389 278.542C352.389 276.865 351.544 275.799 350.244 275.799C348.944 275.799 348.138 276.813 348.138 278.477Z" fill="#52525B"/>
<path d="M387.938 279.413C387.938 280.895 386.729 282.13 384.558 282.13C382.387 282.13 381.113 280.921 381.022 279.153H382.01C382.101 280.479 382.933 281.337 384.545 281.337C385.871 281.337 386.911 280.661 386.911 279.543C386.911 278.581 386.365 278.139 385.039 277.866L383.856 277.632C382.621 277.385 381.321 276.813 381.321 275.188C381.321 273.693 382.634 272.536 384.493 272.536C386.313 272.536 387.717 273.68 387.821 275.461H386.82C386.755 274.226 385.845 273.329 384.506 273.329C383.076 273.329 382.309 274.2 382.309 275.136C382.309 276.241 383.245 276.579 384.285 276.787L385.468 277.034C387.041 277.359 387.938 278.009 387.938 279.413ZM392.378 282.13C390.454 282.13 389.18 280.687 389.18 278.516C389.18 276.514 390.506 275.019 392.326 275.019C394.276 275.019 395.55 276.592 395.394 278.789H390.09C390.168 280.414 391.026 281.415 392.365 281.415C393.509 281.415 394.302 280.778 394.523 279.686H395.42C395.108 281.207 393.951 282.13 392.378 282.13ZM392.313 275.721C391.078 275.721 390.207 276.67 390.09 278.165H394.445C394.367 276.631 393.574 275.721 392.313 275.721ZM403.177 278.568C403.177 280.687 401.994 282.13 400.174 282.13C399.147 282.13 398.276 281.571 397.808 280.596V284.509H396.898V275.149H397.743V276.631C398.211 275.617 399.121 275.019 400.174 275.019C401.994 275.019 403.177 276.475 403.177 278.568ZM402.254 278.568C402.254 276.839 401.357 275.812 400.018 275.812C398.744 275.812 397.795 276.826 397.795 278.568C397.795 280.271 398.718 281.337 400.018 281.337C401.357 281.337 402.254 280.323 402.254 278.568Z" fill="#52525B"/>
<path d="M435.997 282.195C433.293 282.195 431.291 280.037 431.291 277.32C431.291 274.603 433.293 272.471 435.997 272.471C438.701 272.471 440.716 274.603 440.716 277.32C440.716 280.037 438.701 282.195 435.997 282.195ZM435.997 281.324C438.207 281.324 439.702 279.556 439.702 277.32C439.702 275.084 438.207 273.342 435.997 273.342C433.8 273.342 432.292 275.084 432.292 277.32C432.292 279.556 433.8 281.324 435.997 281.324ZM444.768 282.143C442.961 282.143 441.7 280.674 441.7 278.568C441.7 276.488 442.974 275.019 444.768 275.019C446.367 275.019 447.511 276.085 447.784 277.801H446.861C446.653 276.553 445.873 275.812 444.768 275.812C443.494 275.812 442.623 276.93 442.623 278.568C442.623 280.232 443.494 281.35 444.768 281.35C445.886 281.35 446.653 280.622 446.861 279.348H447.784C447.537 281.09 446.38 282.143 444.768 282.143ZM452.776 281.129V281.935C452.425 282.078 452.126 282.13 451.788 282.13C450.657 282.13 449.786 281.545 449.786 280.063V275.916H448.174V275.149H449.786V273.121H450.696V275.149H452.841V275.916H450.696V279.868C450.696 280.934 451.216 281.298 451.97 281.298C452.256 281.298 452.49 281.246 452.776 281.129Z" fill="#52525B"/>
<path d="M487.851 282L482.404 274.044V282H481.494V272.666H482.573L487.968 280.518V272.666H488.891V282H487.851ZM493.681 282.13C491.796 282.13 490.431 280.635 490.431 278.568C490.431 276.514 491.796 275.032 493.681 275.032C495.579 275.032 496.944 276.514 496.944 278.568C496.944 280.635 495.579 282.13 493.681 282.13ZM493.681 281.337C495.02 281.337 496.021 280.271 496.021 278.568C496.021 276.891 495.02 275.825 493.681 275.825C492.355 275.825 491.354 276.891 491.354 278.568C491.354 280.271 492.355 281.337 493.681 281.337ZM503.49 275.149L500.851 282H499.902L497.289 275.149H498.264L500.409 280.934L502.554 275.149H503.49Z" fill="#52525B"/>
<path d="M534.709 282H532.057V272.666H534.709C537.699 272.666 539.35 274.564 539.35 277.294C539.35 279.985 537.634 282 534.709 282ZM533.032 273.511V281.155H534.683C537.049 281.155 538.362 279.608 538.362 277.294C538.362 274.993 537.075 273.511 534.683 273.511H533.032ZM543.545 282.13C541.621 282.13 540.347 280.687 540.347 278.516C540.347 276.514 541.673 275.019 543.493 275.019C545.443 275.019 546.717 276.592 546.561 278.789H541.257C541.335 280.414 542.193 281.415 543.532 281.415C544.676 281.415 545.469 280.778 545.69 279.686H546.587C546.275 281.207 545.118 282.13 543.545 282.13ZM543.48 275.721C542.245 275.721 541.374 276.67 541.257 278.165H545.612C545.534 276.631 544.741 275.721 543.48 275.721ZM550.499 282.143C548.692 282.143 547.431 280.674 547.431 278.568C547.431 276.488 548.705 275.019 550.499 275.019C552.098 275.019 553.242 276.085 553.515 277.801H552.592C552.384 276.553 551.604 275.812 550.499 275.812C549.225 275.812 548.354 276.93 548.354 278.568C548.354 280.232 549.225 281.35 550.499 281.35C551.617 281.35 552.384 280.622 552.592 279.348H553.515C553.268 281.09 552.111 282.143 550.499 282.143Z" fill="#52525B"/>
<path d="M586.607 272.666V278.906C586.607 281.038 585.385 282.195 583.474 282.195C581.654 282.195 580.458 281.051 580.367 279.231H581.342C581.42 280.57 582.265 281.324 583.474 281.324C584.761 281.324 585.632 280.583 585.632 278.984V272.666H586.607ZM592.798 282V280.752C592.395 281.61 591.563 282.13 590.497 282.13C589.08 282.13 588.157 281.337 588.157 280.102C588.157 278.763 589.223 278.061 591.303 278.061C591.719 278.061 592.031 278.087 592.707 278.139V277.567C592.707 276.423 592.096 275.747 591.056 275.747C589.938 275.747 589.236 276.436 589.223 277.554H588.391C588.43 276.033 589.483 275.019 591.043 275.019C592.642 275.019 593.578 275.955 593.578 277.541V282H592.798ZM589.028 280.076C589.028 280.908 589.665 281.467 590.627 281.467C591.901 281.467 592.707 280.635 592.707 279.348V278.737C592.122 278.685 591.719 278.672 591.342 278.672C589.782 278.672 589.028 279.127 589.028 280.076ZM596.402 278.009V282H595.492V275.149H596.337V276.436C596.779 275.591 597.611 275.019 598.599 275.019C600.029 275.019 600.952 275.929 600.952 277.554V282H600.042V277.866C600.042 276.553 599.444 275.812 598.326 275.812C597.26 275.812 596.402 276.735 596.402 278.009Z" fill="#52525B"/>
<line x1="232.5" y1="181" x2="232.5" y2="268" stroke="#E4E4E7"/>
<path d="M231.871 178C234.784 178 236.742 175.06 236.742 172C236.742 168.94 234.784 166 231.871 166C228.958 166 227 168.94 227 172C227 175.06 228.958 178 231.871 178Z" fill="#4F46E5" stroke="white" stroke-width="2"/>
<path d="M28.864 39L28 36.536H23.536L22.656 39H20.208L24.528 27.512H27.184L31.472 39H28.864ZM25.792 30.168L24.224 34.6H27.328L25.792 30.168ZM34.9195 39H32.6795V27.512H34.9195V39ZM39.1539 39H36.9139V27.512H39.1539V39ZM49.58 39V37.944C49.02 38.744 48.172 39.16 47.004 39.16C45.228 39.16 44.044 38.12 44.044 36.52C44.044 34.856 45.388 33.96 47.884 33.96C48.364 33.96 48.78 33.992 49.308 34.056V33.544C49.308 32.584 48.764 32.024 47.836 32.024C46.876 32.024 46.3 32.584 46.22 33.544H44.22C44.348 31.576 45.772 30.296 47.836 30.296C50.076 30.296 51.388 31.528 51.388 33.624V39H49.58ZM46.14 36.456C46.14 37.176 46.652 37.624 47.484 37.624C48.62 37.624 49.308 37 49.308 36.008V35.4C48.78 35.32 48.412 35.288 48.028 35.288C46.764 35.288 46.14 35.688 46.14 36.456ZM56.9045 39.16C54.4405 39.16 52.7445 37.336 52.7445 34.728C52.7445 32.168 54.5045 30.296 56.9045 30.296C59.1285 30.296 60.7765 31.8 61.0485 34.104H58.7125C58.6005 32.968 57.9125 32.264 56.9045 32.264C55.7525 32.264 55.0165 33.208 55.0165 34.728C55.0165 36.264 55.7365 37.192 56.9045 37.192C57.9285 37.192 58.5845 36.52 58.7125 35.352H61.0485C60.7925 37.704 59.1925 39.16 56.9045 39.16ZM67.7884 36.84V38.776C67.2444 39.048 66.7324 39.16 66.0764 39.16C64.3164 39.16 63.2124 38.152 63.2124 36.232V32.36H61.4844V30.456H63.2124V27.928H65.4204V30.456H67.8684V32.36H65.4204V35.72C65.4204 36.712 65.8684 37.112 66.6684 37.112C67.0844 37.112 67.4684 37.016 67.7884 36.84ZM71.8024 28.472C71.8024 29.224 71.1944 29.784 70.3144 29.784C69.4504 29.784 68.8424 29.224 68.8424 28.472C68.8424 27.688 69.4504 27.128 70.3144 27.128C71.1944 27.128 71.8024 27.688 71.8024 28.472ZM71.4504 39H69.2264V30.456H71.4504V39ZM81.1255 30.456L77.9895 39H75.5575L72.4055 30.456H74.8055L76.8375 36.472L78.8855 30.456H81.1255ZM85.5165 39.144C82.9565 39.144 81.2445 37.368 81.2445 34.696C81.2445 32.152 83.0205 30.296 85.4845 30.296C88.1885 30.296 89.9805 32.488 89.5805 35.272H83.5165C83.6605 36.664 84.3325 37.432 85.4685 37.432C86.4445 37.432 87.1005 36.952 87.3565 36.104H89.5645C89.0845 38.04 87.5965 39.144 85.5165 39.144ZM85.4365 31.928C84.3965 31.928 83.7405 32.6 83.5485 33.864H87.2285C87.1645 32.68 86.4925 31.928 85.4365 31.928ZM98.2861 36.264C98.2861 38.056 96.9261 39.16 94.4941 39.16C92.0621 39.16 90.7021 37.992 90.5261 36.088H92.6541C92.6701 36.968 93.4221 37.528 94.5261 37.528C95.3901 37.528 96.0461 37.256 96.0461 36.648C96.0461 36.104 95.6941 35.88 94.8781 35.72L93.3421 35.432C91.8061 35.16 90.8781 34.312 90.8781 32.984C90.8781 31.4 92.2381 30.296 94.3661 30.296C96.5101 30.296 97.9821 31.432 98.1421 33.272H96.0141C95.9341 32.44 95.3101 31.928 94.3661 31.928C93.5501 31.928 93.0061 32.232 93.0061 32.776C93.0061 33.288 93.3581 33.496 94.1261 33.64L95.7741 33.944C97.4381 34.264 98.2861 35.032 98.2861 36.264Z" fill="#18181B"/>
<g filter="url(#filter0_bd_6_58224)">
<mask id="path-25-inside-1_6_58224" fill="white">
<path fill-rule="evenodd" clip-rule="evenodd" d="M193 87C188.582 87 185 90.5817 185 95V136C185 140.418 188.582 144 193 144H226.211L231.73 150L237.249 144H270.461C274.88 144 278.461 140.418 278.461 136V95C278.461 90.5817 274.88 87 270.461 87H193Z"/>
</mask>
<path fill-rule="evenodd" clip-rule="evenodd" d="M193 87C188.582 87 185 90.5817 185 95V136C185 140.418 188.582 144 193 144H226.211L231.73 150L237.249 144H270.461C274.88 144 278.461 140.418 278.461 136V95C278.461 90.5817 274.88 87 270.461 87H193Z" fill="white"/>
<path d="M226.211 144L226.947 143.323L226.65 143H226.211V144ZM231.73 150L230.994 150.677L231.73 151.477L232.466 150.677L231.73 150ZM237.249 144V143H236.81L236.513 143.323L237.249 144ZM186 95C186 91.134 189.134 88 193 88V86C188.029 86 184 90.0294 184 95H186ZM186 136V95H184V136H186ZM193 143C189.134 143 186 139.866 186 136H184C184 140.971 188.029 145 193 145V143ZM226.211 143H193V145H226.211V143ZM225.475 144.677L230.994 150.677L232.466 149.323L226.947 143.323L225.475 144.677ZM232.466 150.677L237.985 144.677L236.513 143.323L230.994 149.323L232.466 150.677ZM270.461 143H237.249V145H270.461V143ZM277.461 136C277.461 139.866 274.327 143 270.461 143V145C275.432 145 279.461 140.971 279.461 136H277.461ZM277.461 95V136H279.461V95H277.461ZM270.461 88C274.327 88 277.461 91.134 277.461 95H279.461C279.461 90.0294 275.432 86 270.461 86V88ZM193 88H270.461V86H193V88Z" fill="#E4E4E7" mask="url(#path-25-inside-1_6_58224)"/>
</g>
<path d="M211.751 130.157H211.088V129.117C209.359 128.974 208.345 127.882 208.28 126.348H209.203C209.294 127.57 210.022 128.363 211.452 128.363C212.635 128.363 213.584 127.739 213.584 126.686C213.584 125.776 213.064 125.373 211.894 125.126L210.854 124.905C209.736 124.645 208.553 124.151 208.553 122.591C208.553 121.278 209.58 120.238 211.088 120.108V119.029H211.751V120.108C213.233 120.238 214.351 121.252 214.442 122.812H213.519C213.454 121.681 212.635 120.862 211.452 120.862C210.191 120.862 209.489 121.642 209.489 122.539C209.489 123.566 210.321 123.891 211.231 124.086L212.258 124.307C213.597 124.606 214.546 125.152 214.546 126.569C214.546 127.908 213.558 129.026 211.751 129.117V130.157ZM222.082 126.907H220.899V129H220.002V126.907H215.725V126.296L220.262 120.212H220.899V126.114H222.082V126.907ZM216.778 126.114H220.002V121.694L216.778 126.114ZM225.992 129.13C224.393 129.13 223.171 128.051 223.119 126.556H224.003C224.081 127.635 224.887 128.324 225.992 128.324C227.331 128.324 228.098 127.492 228.098 126.257C228.098 125.152 227.266 124.268 226.018 124.268C225.173 124.268 224.523 124.632 224.094 125.308L223.392 125.1L224.159 120.212H228.527V121.005H224.809L224.328 124.177C224.861 123.696 225.459 123.488 226.135 123.488C227.929 123.488 229.021 124.736 229.021 126.244C229.021 127.895 227.877 129.13 225.992 129.13ZM231.898 128.571C231.898 129.533 231.17 130.43 229.922 130.469V129.923C230.663 129.871 231.17 129.416 231.222 128.818C231.118 128.87 231.027 128.883 230.923 128.883C230.507 128.883 230.208 128.558 230.208 128.168C230.208 127.713 230.546 127.414 230.988 127.414C231.599 127.414 231.898 127.882 231.898 128.571ZM236.034 129.13C234.435 129.13 233.213 128.051 233.161 126.556H234.045C234.123 127.635 234.929 128.324 236.034 128.324C237.373 128.324 238.14 127.492 238.14 126.257C238.14 125.152 237.308 124.268 236.06 124.268C235.215 124.268 234.565 124.632 234.136 125.308L233.434 125.1L234.201 120.212H238.569V121.005H234.851L234.37 124.177C234.903 123.696 235.501 123.488 236.177 123.488C237.971 123.488 239.063 124.736 239.063 126.244C239.063 127.895 237.919 129.13 236.034 129.13ZM242.904 120.095C244.659 120.095 245.959 121.356 245.959 122.968C245.959 124.047 245.53 124.723 244.789 125.659L242.15 129H241.11L243.749 125.646C243.398 125.789 243.034 125.841 242.709 125.841C241.071 125.841 239.836 124.71 239.836 122.994C239.836 121.356 241.136 120.095 242.904 120.095ZM242.891 120.849C241.656 120.849 240.772 121.746 240.772 122.968C240.772 124.281 241.656 125.152 242.891 125.152C244.1 125.152 245.023 124.398 245.023 122.994C245.023 121.746 244.1 120.849 242.891 120.849ZM249.21 129H248.313V120.992H246.584V120.212H249.21V129Z" fill="#18181B"/>
<path d="M210.22 101.384V107.036C210.22 108.98 209.08 110.18 207.16 110.18C205.276 110.18 204.148 108.992 204.1 107.24H205.432C205.48 108.332 206.056 108.992 207.16 108.992C208.276 108.992 208.888 108.344 208.888 107.096V101.384H210.22ZM215.904 107.384V103.64H217.116V110H215.988V108.992C215.652 109.652 214.908 110.12 214.044 110.12C212.76 110.12 211.872 109.364 211.872 107.732V103.64H213.084V107.492C213.084 108.596 213.636 109.052 214.428 109.052C215.244 109.052 215.904 108.38 215.904 107.384ZM220.011 106.412V110H218.799V103.64H219.927V104.696C220.359 103.988 221.079 103.52 221.955 103.52C223.263 103.52 224.127 104.36 224.127 105.884V110H222.915V106.292C222.915 105.2 222.435 104.588 221.535 104.588C220.707 104.588 220.011 105.284 220.011 106.412ZM228.353 110.12C226.517 110.12 225.281 108.788 225.281 106.784C225.281 104.9 226.565 103.52 228.317 103.52C230.213 103.52 231.473 105.056 231.257 107.12H226.517C226.613 108.416 227.261 109.172 228.329 109.172C229.229 109.172 229.853 108.68 230.057 107.852H231.257C230.945 109.268 229.853 110.12 228.353 110.12ZM228.293 104.432C227.321 104.432 226.661 105.128 226.529 106.316H229.973C229.913 105.14 229.277 104.432 228.293 104.432ZM240.081 108.92V110H234.837V109.304L237.369 106.568C238.329 105.524 238.701 104.96 238.701 104.228C238.701 103.424 238.137 102.86 237.309 102.86C236.409 102.86 235.809 103.448 235.809 104.348H234.621C234.621 102.848 235.749 101.768 237.357 101.768C238.869 101.768 239.973 102.752 239.973 104.084C239.973 105.008 239.625 105.656 238.293 107.072L236.661 108.92H240.081ZM241.2 105.956C241.2 103.268 242.268 101.768 244.188 101.768C246.108 101.768 247.188 103.268 247.188 105.956C247.188 108.644 246.132 110.12 244.188 110.12C242.244 110.12 241.2 108.644 241.2 105.956ZM242.448 105.956C242.448 107.96 243.048 109.028 244.188 109.028C245.328 109.028 245.94 107.972 245.94 105.956C245.94 103.928 245.328 102.86 244.188 102.86C243.072 102.86 242.448 103.928 242.448 105.956ZM253.64 108.92V110H248.396V109.304L250.928 106.568C251.888 105.524 252.26 104.96 252.26 104.228C252.26 103.424 251.696 102.86 250.868 102.86C249.968 102.86 249.368 103.448 249.368 104.348H248.18C248.18 102.848 249.308 101.768 250.916 101.768C252.428 101.768 253.532 102.752 253.532 104.084C253.532 105.008 253.184 105.656 251.852 107.072L250.22 108.92H253.64ZM257.52 110.108C255.84 110.108 254.664 109.124 254.652 107.696H255.84C255.888 108.572 256.536 109.136 257.52 109.136C258.54 109.136 259.164 108.584 259.164 107.708C259.164 106.856 258.456 106.316 257.34 106.316H256.5V105.344H257.28C258.192 105.344 258.792 104.816 258.792 104.024C258.792 103.256 258.252 102.74 257.436 102.74C256.608 102.74 256.056 103.268 256.02 104.096H254.844C254.88 102.764 256.008 101.768 257.484 101.768C259.044 101.768 260.052 102.668 260.052 103.94C260.052 104.732 259.584 105.368 258.744 105.764C259.812 106.052 260.424 106.748 260.424 107.684C260.424 109.124 259.248 110.108 257.52 110.108Z" fill="#71717A"/>
<rect x="181.104" y="19.5" width="60.1581" height="29" rx="4.5" fill="white"/>
<rect x="181.104" y="19.5" width="60.1581" height="29" rx="4.5" stroke="#A1A1AA"/>
<path d="M188.8 38H187.678V31.532H186.237V30.564H188.8V38ZM195.049 37.01V38H190.242V37.362L192.563 34.854C193.443 33.897 193.784 33.38 193.784 32.709C193.784 31.972 193.267 31.455 192.508 31.455C191.683 31.455 191.133 31.994 191.133 32.819H190.044C190.044 31.444 191.078 30.454 192.552 30.454C193.938 30.454 194.95 31.356 194.95 32.577C194.95 33.424 194.631 34.018 193.41 35.316L191.914 37.01H195.049ZM202.3 38L199.803 31.961V38H198.692V30.102H200.177L202.828 36.515L205.468 30.102H206.964V38H205.842V31.95L203.334 38H202.3ZM211.025 38.11C209.375 38.11 208.165 36.812 208.165 35.085C208.165 33.358 209.375 32.06 211.025 32.06C212.675 32.06 213.885 33.358 213.885 35.085C213.885 36.812 212.675 38.11 211.025 38.11ZM211.025 37.131C211.982 37.131 212.741 36.361 212.741 35.085C212.741 33.809 211.982 33.05 211.025 33.05C210.068 33.05 209.32 33.809 209.32 35.085C209.32 36.361 210.068 37.131 211.025 37.131ZM216.129 34.711V38H215.018V32.17H216.052V33.138C216.448 32.489 217.108 32.06 217.911 32.06C219.11 32.06 219.902 32.83 219.902 34.227V38H218.791V34.601C218.791 33.6 218.351 33.039 217.526 33.039C216.767 33.039 216.129 33.677 216.129 34.711ZM224.645 36.922V37.901C224.304 38.055 224.007 38.11 223.655 38.11C222.577 38.11 221.829 37.527 221.829 36.24V33.116H220.542V32.17H221.829V30.443H222.94V32.17H224.7V33.116H222.94V35.987C222.94 36.79 223.325 37.076 223.919 37.076C224.183 37.076 224.414 37.032 224.645 36.922ZM226.871 34.711V38H225.76V30.102H226.871V33.105C227.256 32.478 227.85 32.06 228.653 32.06C229.852 32.06 230.644 32.83 230.644 34.227V38H229.533V34.601C229.533 33.6 229.093 33.039 228.268 33.039C227.509 33.039 226.871 33.677 226.871 34.711ZM236.74 36.262C236.74 37.406 235.849 38.11 234.298 38.11C232.758 38.11 231.845 37.351 231.735 36.097H232.802C232.846 36.823 233.429 37.274 234.32 37.274C235.101 37.274 235.618 36.999 235.618 36.449C235.618 35.965 235.321 35.756 234.595 35.613L233.649 35.437C232.571 35.228 231.966 34.678 231.966 33.798C231.966 32.775 232.857 32.06 234.21 32.06C235.607 32.06 236.553 32.808 236.652 34.007H235.585C235.519 33.303 235.002 32.896 234.221 32.896C233.517 32.896 233.044 33.193 233.044 33.699C233.044 34.172 233.341 34.392 234.045 34.524L235.035 34.711C236.19 34.92 236.74 35.426 236.74 36.262Z" fill="#18181B"/>
<rect x="248.729" y="19" width="58.8356" height="30" rx="5" fill="white"/>
<path d="M257.167 38.132C256.61 38.132 256.115 38.0147 255.682 37.78C255.257 37.538 254.923 37.2153 254.681 36.812C254.439 36.4013 254.318 35.9357 254.318 35.415C254.318 35.151 254.344 34.887 254.395 34.623C254.454 34.359 254.557 34.0767 254.703 33.776C254.857 33.4753 255.077 33.1417 255.363 32.775L257.651 29.805H259.433L256.65 33.38L256.408 33.116C256.511 33.0353 256.617 32.973 256.727 32.929C256.837 32.8777 256.947 32.841 257.057 32.819C257.175 32.797 257.296 32.786 257.42 32.786C257.919 32.786 258.363 32.8997 258.751 33.127C259.14 33.3543 259.444 33.666 259.664 34.062C259.892 34.4507 260.005 34.8907 260.005 35.382C260.005 35.91 259.884 36.383 259.642 36.801C259.4 37.2117 259.063 37.538 258.63 37.78C258.205 38.0147 257.717 38.132 257.167 38.132ZM257.167 36.779C257.417 36.779 257.64 36.724 257.838 36.614C258.044 36.4967 258.205 36.3317 258.322 36.119C258.447 35.9063 258.509 35.668 258.509 35.404C258.509 35.1253 258.447 34.887 258.322 34.689C258.205 34.4837 258.047 34.3223 257.849 34.205C257.651 34.0877 257.424 34.029 257.167 34.029C256.918 34.029 256.691 34.0877 256.485 34.205C256.28 34.3223 256.115 34.4837 255.99 34.689C255.873 34.887 255.814 35.1253 255.814 35.404C255.814 35.668 255.873 35.9063 255.99 36.119C256.115 36.3317 256.28 36.4967 256.485 36.614C256.691 36.724 256.918 36.779 257.167 36.779ZM263.209 38V29.805H264.639L267.708 33.974H267.026L270.029 29.805H271.459V38H269.952V31.51L270.535 31.653L267.422 35.8H267.246L264.21 31.653L264.705 31.51V38H263.209ZM275.833 38.132C275.246 38.132 274.711 37.9963 274.227 37.725C273.75 37.4537 273.369 37.0833 273.083 36.614C272.804 36.1447 272.665 35.6093 272.665 35.008C272.665 34.4067 272.804 33.8713 273.083 33.402C273.369 32.9327 273.75 32.5623 274.227 32.291C274.704 32.0197 275.239 31.884 275.833 31.884C276.42 31.884 276.951 32.0197 277.428 32.291C277.905 32.5623 278.282 32.9327 278.561 33.402C278.847 33.864 278.99 34.3993 278.99 35.008C278.99 35.6093 278.847 36.1447 278.561 36.614C278.275 37.0833 277.894 37.4537 277.417 37.725C276.94 37.9963 276.412 38.132 275.833 38.132ZM275.833 36.812C276.156 36.812 276.438 36.735 276.68 36.581C276.929 36.427 277.124 36.2143 277.263 35.943C277.41 35.6643 277.483 35.3527 277.483 35.008C277.483 34.656 277.41 34.348 277.263 34.084C277.124 33.8127 276.929 33.6 276.68 33.446C276.438 33.2847 276.156 33.204 275.833 33.204C275.503 33.204 275.213 33.2847 274.964 33.446C274.715 33.6 274.517 33.8127 274.37 34.084C274.231 34.348 274.161 34.656 274.161 35.008C274.161 35.3527 274.231 35.6643 274.37 35.943C274.517 36.2143 274.715 36.427 274.964 36.581C275.213 36.735 275.503 36.812 275.833 36.812ZM280.083 38V32.016H281.436V33.193L281.326 32.984C281.465 32.6247 281.692 32.3533 282.008 32.17C282.33 31.9793 282.704 31.884 283.13 31.884C283.57 31.884 283.958 31.9793 284.296 32.17C284.64 32.3607 284.908 32.6283 285.099 32.973C285.289 33.3103 285.385 33.7027 285.385 34.15V38H283.944V34.491C283.944 34.227 283.892 33.9997 283.79 33.809C283.687 33.6183 283.544 33.4717 283.361 33.369C283.185 33.259 282.976 33.204 282.734 33.204C282.499 33.204 282.29 33.259 282.107 33.369C281.923 33.4717 281.78 33.6183 281.678 33.809C281.575 33.9997 281.524 34.227 281.524 34.491V38H280.083ZM289.331 38.066C288.656 38.066 288.132 37.8827 287.758 37.516C287.391 37.142 287.208 36.6177 287.208 35.943V33.303H286.174V32.016H286.284C286.577 32.016 286.805 31.939 286.966 31.785C287.127 31.631 287.208 31.4073 287.208 31.114V30.652H288.649V32.016H290.024V33.303H288.649V35.866C288.649 36.064 288.682 36.2327 288.748 36.372C288.821 36.5113 288.931 36.6177 289.078 36.691C289.232 36.7643 289.426 36.801 289.661 36.801C289.712 36.801 289.771 36.7973 289.837 36.79C289.91 36.7827 289.98 36.7753 290.046 36.768V38C289.943 38.0147 289.826 38.0293 289.694 38.044C289.562 38.0587 289.441 38.066 289.331 38.066ZM291.147 38V29.673H292.588V33.193L292.39 32.984C292.529 32.6247 292.757 32.3533 293.072 32.17C293.395 31.9793 293.769 31.884 294.194 31.884C294.634 31.884 295.023 31.9793 295.36 32.17C295.705 32.3607 295.972 32.6283 296.163 32.973C296.354 33.3103 296.449 33.7027 296.449 34.15V38H295.008V34.491C295.008 34.227 294.957 33.9997 294.854 33.809C294.751 33.6183 294.608 33.4717 294.425 33.369C294.249 33.259 294.04 33.204 293.798 33.204C293.563 33.204 293.354 33.259 293.171 33.369C292.988 33.4717 292.845 33.6183 292.742 33.809C292.639 33.9997 292.588 34.227 292.588 34.491V38H291.147ZM299.945 38.132C299.307 38.132 298.749 37.9817 298.273 37.681C297.803 37.373 297.481 36.9587 297.305 36.438L298.383 35.921C298.537 36.2583 298.749 36.5223 299.021 36.713C299.299 36.9037 299.607 36.999 299.945 36.999C300.209 36.999 300.418 36.9403 300.572 36.823C300.726 36.7057 300.803 36.5517 300.803 36.361C300.803 36.2437 300.77 36.1483 300.704 36.075C300.645 35.9943 300.561 35.9283 300.451 35.877C300.348 35.8183 300.234 35.7707 300.11 35.734L299.131 35.459C298.625 35.3123 298.24 35.0887 297.976 34.788C297.719 34.4873 297.591 34.1317 297.591 33.721C297.591 33.3543 297.682 33.0353 297.866 32.764C298.056 32.4853 298.317 32.269 298.647 32.115C298.984 31.961 299.369 31.884 299.802 31.884C300.366 31.884 300.865 32.0197 301.298 32.291C301.73 32.5623 302.038 32.9437 302.222 33.435L301.122 33.952C301.019 33.6807 300.847 33.4643 300.605 33.303C300.363 33.1417 300.091 33.061 299.791 33.061C299.549 33.061 299.358 33.116 299.219 33.226C299.079 33.336 299.01 33.479 299.01 33.655C299.01 33.765 299.039 33.8603 299.098 33.941C299.156 34.0217 299.237 34.0877 299.34 34.139C299.45 34.1903 299.574 34.238 299.714 34.282L300.671 34.568C301.162 34.7147 301.54 34.9347 301.804 35.228C302.075 35.5213 302.211 35.8807 302.211 36.306C302.211 36.6653 302.115 36.9843 301.925 37.263C301.734 37.5343 301.47 37.747 301.133 37.901C300.795 38.055 300.399 38.132 299.945 38.132Z" fill="#71717A"/>
<rect x="314.532" y="19" width="58.8356" height="30" rx="5" fill="white"/>
<path d="M326.108 38.132C325.66 38.132 325.235 38.0513 324.832 37.89C324.436 37.7213 324.095 37.4867 323.809 37.186C323.53 36.878 323.339 36.515 323.237 36.097L324.546 35.635C324.678 36.009 324.879 36.295 325.151 36.493C325.422 36.6837 325.741 36.779 326.108 36.779C326.401 36.779 326.654 36.724 326.867 36.614C327.087 36.504 327.259 36.3463 327.384 36.141C327.508 35.9283 327.571 35.679 327.571 35.393C327.571 35.107 327.508 34.865 327.384 34.667C327.266 34.4617 327.098 34.304 326.878 34.194C326.658 34.084 326.397 34.029 326.097 34.029C325.957 34.029 325.811 34.0437 325.657 34.073C325.51 34.1023 325.378 34.1463 325.261 34.205L324.92 33.49L327.043 31.07H323.699V29.805H328.726V30.982L326.592 33.479L326.614 32.918C327.105 32.9253 327.534 33.0317 327.901 33.237C328.267 33.4423 328.553 33.7247 328.759 34.084C328.964 34.4433 329.067 34.865 329.067 35.349C329.067 35.877 328.938 36.3537 328.682 36.779C328.425 37.197 328.073 37.527 327.626 37.769C327.178 38.011 326.672 38.132 326.108 38.132ZM333.503 38.132C332.851 38.132 332.279 37.956 331.787 37.604C331.296 37.252 330.911 36.757 330.632 36.119C330.361 35.481 330.225 34.7403 330.225 33.897C330.225 33.0463 330.361 32.3057 330.632 31.675C330.904 31.0443 331.285 30.553 331.776 30.201C332.268 29.849 332.84 29.673 333.492 29.673C334.16 29.673 334.735 29.849 335.219 30.201C335.711 30.553 336.096 31.048 336.374 31.686C336.653 32.3167 336.792 33.0537 336.792 33.897C336.792 34.7403 336.653 35.481 336.374 36.119C336.103 36.7497 335.722 37.2447 335.23 37.604C334.739 37.956 334.163 38.132 333.503 38.132ZM333.514 36.768C333.888 36.768 334.207 36.6543 334.471 36.427C334.735 36.1923 334.937 35.8623 335.076 35.437C335.223 35.0043 335.296 34.491 335.296 33.897C335.296 33.303 335.223 32.7933 335.076 32.368C334.937 31.9353 334.732 31.6053 334.46 31.378C334.196 31.1507 333.874 31.037 333.492 31.037C333.126 31.037 332.81 31.1507 332.546 31.378C332.282 31.6053 332.077 31.9353 331.93 32.368C331.791 32.7933 331.721 33.303 331.721 33.897C331.721 34.4837 331.791 34.9933 331.93 35.426C332.077 35.8513 332.282 36.1813 332.546 36.416C332.818 36.6507 333.14 36.768 333.514 36.768ZM340.145 38V29.805H342.818C343.683 29.805 344.435 29.981 345.073 30.333C345.718 30.6777 346.217 31.158 346.569 31.774C346.921 32.3827 347.097 33.0903 347.097 33.897C347.097 34.6963 346.921 35.4077 346.569 36.031C346.217 36.647 345.718 37.131 345.073 37.483C344.435 37.8277 343.683 38 342.818 38H340.145ZM341.641 36.68H342.851C343.408 36.68 343.888 36.5663 344.292 36.339C344.702 36.1043 345.021 35.7817 345.249 35.371C345.476 34.953 345.59 34.4617 345.59 33.897C345.59 33.325 345.476 32.8337 345.249 32.423C345.021 32.0123 344.702 31.6933 344.292 31.466C343.888 31.2387 343.408 31.125 342.851 31.125H341.641V36.68ZM349.96 38.132C349.542 38.132 349.179 38.0623 348.871 37.923C348.563 37.7837 348.324 37.5857 348.156 37.329C347.987 37.065 347.903 36.7607 347.903 36.416C347.903 36.086 347.976 35.7927 348.123 35.536C348.269 35.272 348.497 35.052 348.805 34.876C349.113 34.7 349.501 34.5753 349.971 34.502L351.929 34.183V35.283L350.246 35.569C349.96 35.6203 349.747 35.712 349.608 35.844C349.468 35.976 349.399 36.1483 349.399 36.361C349.399 36.5663 349.476 36.7313 349.63 36.856C349.791 36.9733 349.989 37.032 350.224 37.032C350.524 37.032 350.788 36.9697 351.016 36.845C351.25 36.713 351.43 36.5333 351.555 36.306C351.687 36.0787 351.753 35.8293 351.753 35.558V34.018C351.753 33.7613 351.65 33.5487 351.445 33.38C351.247 33.204 350.983 33.116 350.653 33.116C350.345 33.116 350.07 33.2003 349.828 33.369C349.593 33.5303 349.421 33.7467 349.311 34.018L348.134 33.446C348.251 33.1307 348.434 32.8593 348.684 32.632C348.94 32.3973 349.241 32.214 349.586 32.082C349.93 31.95 350.304 31.884 350.708 31.884C351.199 31.884 351.632 31.9757 352.006 32.159C352.38 32.335 352.669 32.5843 352.875 32.907C353.087 33.2223 353.194 33.5927 353.194 34.018V38H351.83V36.977L352.138 36.955C351.984 37.2117 351.8 37.428 351.588 37.604C351.375 37.7727 351.133 37.9047 350.862 38C350.59 38.088 350.29 38.132 349.96 38.132ZM355.251 40.431C355.09 40.431 354.932 40.4163 354.778 40.387C354.624 40.365 354.485 40.3247 354.36 40.266V39.056C354.456 39.078 354.569 39.1 354.701 39.122C354.841 39.144 354.969 39.155 355.086 39.155C355.416 39.155 355.655 39.078 355.801 38.924C355.955 38.77 356.091 38.5683 356.208 38.319L356.604 37.395L356.582 38.605L353.975 32.016H355.526L357.352 36.878H356.802L358.617 32.016H360.179L357.572 38.605C357.418 38.9937 357.231 39.3237 357.011 39.595C356.791 39.8663 356.535 40.0717 356.241 40.211C355.955 40.3577 355.625 40.431 355.251 40.431ZM363.248 38.132C362.61 38.132 362.052 37.9817 361.576 37.681C361.106 37.373 360.784 36.9587 360.608 36.438L361.686 35.921C361.84 36.2583 362.052 36.5223 362.324 36.713C362.602 36.9037 362.91 36.999 363.248 36.999C363.512 36.999 363.721 36.9403 363.875 36.823C364.029 36.7057 364.106 36.5517 364.106 36.361C364.106 36.2437 364.073 36.1483 364.007 36.075C363.948 35.9943 363.864 35.9283 363.754 35.877C363.651 35.8183 363.537 35.7707 363.413 35.734L362.434 35.459C361.928 35.3123 361.543 35.0887 361.279 34.788C361.022 34.4873 360.894 34.1317 360.894 33.721C360.894 33.3543 360.985 33.0353 361.169 32.764C361.359 32.4853 361.62 32.269 361.95 32.115C362.287 31.961 362.672 31.884 363.105 31.884C363.669 31.884 364.168 32.0197 364.601 32.291C365.033 32.5623 365.341 32.9437 365.525 33.435L364.425 33.952C364.322 33.6807 364.15 33.4643 363.908 33.303C363.666 33.1417 363.394 33.061 363.094 33.061C362.852 33.061 362.661 33.116 362.522 33.226C362.382 33.336 362.313 33.479 362.313 33.655C362.313 33.765 362.342 33.8603 362.401 33.941C362.459 34.0217 362.54 34.0877 362.643 34.139C362.753 34.1903 362.877 34.238 363.017 34.282L363.974 34.568C364.465 34.7147 364.843 34.9347 365.107 35.228C365.378 35.5213 365.514 35.8807 365.514 36.306C365.514 36.6653 365.418 36.9843 365.228 37.263C365.037 37.5343 364.773 37.747 364.436 37.901C364.098 38.055 363.702 38.132 363.248 38.132Z" fill="#71717A"/>
<rect x="380.335" y="19" width="58.8356" height="30" rx="5" fill="white"/>
<path d="M393.348 38L396.758 31.07H392.897V29.805H398.331V31.07L394.998 38H393.348ZM401.447 38V29.805H404.12C404.986 29.805 405.737 29.981 406.375 30.333C407.021 30.6777 407.519 31.158 407.871 31.774C408.223 32.3827 408.399 33.0903 408.399 33.897C408.399 34.6963 408.223 35.4077 407.871 36.031C407.519 36.647 407.021 37.131 406.375 37.483C405.737 37.8277 404.986 38 404.12 38H401.447ZM402.943 36.68H404.153C404.711 36.68 405.191 36.5663 405.594 36.339C406.005 36.1043 406.324 35.7817 406.551 35.371C406.779 34.953 406.892 34.4617 406.892 33.897C406.892 33.325 406.779 32.8337 406.551 32.423C406.324 32.0123 406.005 31.6933 405.594 31.466C405.191 31.2387 404.711 31.125 404.153 31.125H402.943V36.68ZM411.262 38.132C410.844 38.132 410.481 38.0623 410.173 37.923C409.865 37.7837 409.627 37.5857 409.458 37.329C409.29 37.065 409.205 36.7607 409.205 36.416C409.205 36.086 409.279 35.7927 409.425 35.536C409.572 35.272 409.799 35.052 410.107 34.876C410.415 34.7 410.804 34.5753 411.273 34.502L413.231 34.183V35.283L411.548 35.569C411.262 35.6203 411.05 35.712 410.91 35.844C410.771 35.976 410.701 36.1483 410.701 36.361C410.701 36.5663 410.778 36.7313 410.932 36.856C411.094 36.9733 411.292 37.032 411.526 37.032C411.827 37.032 412.091 36.9697 412.318 36.845C412.553 36.713 412.733 36.5333 412.857 36.306C412.989 36.0787 413.055 35.8293 413.055 35.558V34.018C413.055 33.7613 412.953 33.5487 412.747 33.38C412.549 33.204 412.285 33.116 411.955 33.116C411.647 33.116 411.372 33.2003 411.13 33.369C410.896 33.5303 410.723 33.7467 410.613 34.018L409.436 33.446C409.554 33.1307 409.737 32.8593 409.986 32.632C410.243 32.3973 410.544 32.214 410.888 32.082C411.233 31.95 411.607 31.884 412.01 31.884C412.502 31.884 412.934 31.9757 413.308 32.159C413.682 32.335 413.972 32.5843 414.177 32.907C414.39 33.2223 414.496 33.5927 414.496 34.018V38H413.132V36.977L413.44 36.955C413.286 37.2117 413.103 37.428 412.89 37.604C412.678 37.7727 412.436 37.9047 412.164 38C411.893 38.088 411.592 38.132 411.262 38.132ZM416.554 40.431C416.393 40.431 416.235 40.4163 416.081 40.387C415.927 40.365 415.788 40.3247 415.663 40.266V39.056C415.759 39.078 415.872 39.1 416.004 39.122C416.144 39.144 416.272 39.155 416.389 39.155C416.719 39.155 416.958 39.078 417.104 38.924C417.258 38.77 417.394 38.5683 417.511 38.319L417.907 37.395L417.885 38.605L415.278 32.016H416.829L418.655 36.878H418.105L419.92 32.016H421.482L418.875 38.605C418.721 38.9937 418.534 39.3237 418.314 39.595C418.094 39.8663 417.838 40.0717 417.544 40.211C417.258 40.3577 416.928 40.431 416.554 40.431ZM424.551 38.132C423.913 38.132 423.355 37.9817 422.879 37.681C422.409 37.373 422.087 36.9587 421.911 36.438L422.989 35.921C423.143 36.2583 423.355 36.5223 423.627 36.713C423.905 36.9037 424.213 36.999 424.551 36.999C424.815 36.999 425.024 36.9403 425.178 36.823C425.332 36.7057 425.409 36.5517 425.409 36.361C425.409 36.2437 425.376 36.1483 425.31 36.075C425.251 35.9943 425.167 35.9283 425.057 35.877C424.954 35.8183 424.84 35.7707 424.716 35.734L423.737 35.459C423.231 35.3123 422.846 35.0887 422.582 34.788C422.325 34.4873 422.197 34.1317 422.197 33.721C422.197 33.3543 422.288 33.0353 422.472 32.764C422.662 32.4853 422.923 32.269 423.253 32.115C423.59 31.961 423.975 31.884 424.408 31.884C424.972 31.884 425.471 32.0197 425.904 32.291C426.336 32.5623 426.644 32.9437 426.828 33.435L425.728 33.952C425.625 33.6807 425.453 33.4643 425.211 33.303C424.969 33.1417 424.697 33.061 424.397 33.061C424.155 33.061 423.964 33.116 423.825 33.226C423.685 33.336 423.616 33.479 423.616 33.655C423.616 33.765 423.645 33.8603 423.704 33.941C423.762 34.0217 423.843 34.0877 423.946 34.139C424.056 34.1903 424.18 34.238 424.32 34.282L425.277 34.568C425.768 34.7147 426.146 34.9347 426.41 35.228C426.681 35.5213 426.817 35.8807 426.817 36.306C426.817 36.6653 426.721 36.9843 426.531 37.263C426.34 37.5343 426.076 37.747 425.739 37.901C425.401 38.055 425.005 38.132 424.551 38.132Z" fill="#71717A"/>
<rect x="505.5" y="19.5" width="81" height="29" rx="4.5" fill="white" stroke="#D4D4D8"/>
<path d="M532.028 36.944V38H527.023V30.102H531.951V31.158H528.233V33.402H531.621V34.458H528.233V36.944H532.028ZM533.964 38H532.71L534.778 35.019L532.842 32.17H534.129L535.57 34.37L537.011 32.17H538.21L536.296 35.052L538.342 38H537.066L535.504 35.679L533.964 38ZM544.801 35.085C544.801 36.845 543.789 38.11 542.227 38.11C541.435 38.11 540.764 37.714 540.346 37.01V40.123H539.235V32.17H540.269V33.237C540.687 32.489 541.402 32.06 542.227 32.06C543.778 32.06 544.801 33.325 544.801 35.085ZM543.646 35.085C543.646 33.776 542.953 33.039 541.996 33.039C541.072 33.039 540.346 33.776 540.346 35.085C540.346 36.372 541.061 37.12 541.996 37.12C542.953 37.12 543.646 36.394 543.646 35.085ZM548.369 38.11C546.719 38.11 545.509 36.812 545.509 35.085C545.509 33.358 546.719 32.06 548.369 32.06C550.019 32.06 551.229 33.358 551.229 35.085C551.229 36.812 550.019 38.11 548.369 38.11ZM548.369 37.131C549.326 37.131 550.085 36.361 550.085 35.085C550.085 33.809 549.326 33.05 548.369 33.05C547.412 33.05 546.664 33.809 546.664 35.085C546.664 36.361 547.412 37.131 548.369 37.131ZM553.473 35.019V38H552.362V32.17H553.396V33.402C553.803 32.599 554.683 32.093 555.64 32.093V33.248C554.386 33.182 553.473 33.732 553.473 35.019ZM560.163 36.922V37.901C559.822 38.055 559.525 38.11 559.173 38.11C558.095 38.11 557.347 37.527 557.347 36.24V33.116H556.06V32.17H557.347V30.443H558.458V32.17H560.218V33.116H558.458V35.987C558.458 36.79 558.843 37.076 559.437 37.076C559.701 37.076 559.932 37.032 560.163 36.922ZM566.404 35.25H564.875V38H563.665V30.102H566.404C568.175 30.102 569.319 31.004 569.319 32.654C569.319 34.315 568.175 35.25 566.404 35.25ZM566.393 31.125H564.875V34.227H566.393C567.46 34.227 568.109 33.644 568.109 32.665C568.109 31.686 567.46 31.125 566.393 31.125ZM573.026 38H570.529V30.102H573.026C575.545 30.102 576.997 31.708 576.997 34.018C576.997 36.295 575.49 38 573.026 38ZM571.739 31.147V36.955H572.971C574.786 36.955 575.765 35.833 575.765 34.018C575.765 32.236 574.797 31.147 572.971 31.147H571.739ZM579.473 38H578.263V30.102H583.059V31.158H579.473V33.732H582.531V34.788H579.473V38Z" fill="#18181B"/>
<path d="M514.193 32.3342V35.9706M514.193 35.9706L512.645 34.1524M514.193 35.9706L515.742 34.1524M516.774 39.0009H511.613C511.043 39.0009 510.581 38.4582 510.581 37.7888V29.3039C510.581 28.6345 511.043 28.0918 511.613 28.0918H514.496C514.632 28.0918 514.764 28.1556 514.861 28.2693L517.655 31.5506C517.752 31.6643 517.806 31.8185 517.806 31.9792V37.7888C517.806 38.4582 517.344 39.0009 516.774 39.0009Z" stroke="#18181B" stroke-width="1.5" stroke-linecap="round" stroke-linejoin="round"/>
<defs>
<filter id="filter0_bd_6_58224" x="148" y="84" width="167.461" height="147" filterUnits="userSpaceOnUse" color-interpolation-filters="sRGB">
<feFlood flood-opacity="0" result="BackgroundImageFix"/>
<feGaussianBlur in="BackgroundImageFix" stdDeviation="1.5"/>
<feComposite in2="SourceAlpha" operator="in" result="effect1_backgroundBlur_6_58224"/>
<feColorMatrix in="SourceAlpha" type="matrix" values="0 0 0 0 0 0 0 0 0 0 0 0 0 0 0 0 0 0 127 0" result="hardAlpha"/>
<feMorphology radius="7" operator="erode" in="SourceAlpha" result="effect2_dropShadow_6_58224"/>
<feOffset dy="44"/>
<feGaussianBlur stdDeviation="22"/>
<feComposite in2="hardAlpha" operator="out"/>
<feColorMatrix type="matrix" values="0 0 0 0 0 0 0 0 0 0 0 0 0 0 0 0 0 0 0.08 0"/>
<feBlend mode="normal" in2="effect1_backgroundBlur_6_58224" result="effect2_dropShadow_6_58224"/>
<feBlend mode="normal" in="SourceGraphic" in2="effect2_dropShadow_6_58224" result="shape"/>
</filter>
</defs>
</svg>
