<svg width="24" height="25" viewBox="0 0 24 25" fill="none" xmlns="http://www.w3.org/2000/svg">
<path fill-rule="evenodd" clip-rule="evenodd" d="M21.0005 7.17185C21.0005 9.20045 19.3553 10.8456 17.3267 10.8456C15.2981 10.8456 13.6538 9.20045 13.6538 7.17185C13.6538 5.14325 15.2981 3.49805 17.3267 3.49805C19.3553 3.49805 21.0005 5.14325 21.0005 7.17185Z" stroke="white" stroke-width="1.5" stroke-linecap="round" stroke-linejoin="round"/>
<path fill-rule="evenodd" clip-rule="evenodd" d="M10.3467 7.17185C10.3467 9.20045 8.7024 10.8456 6.6729 10.8456C4.6452 10.8456 3 9.20045 3 7.17185C3 5.14325 4.6452 3.49805 6.6729 3.49805C8.7024 3.49805 10.3467 5.14325 10.3467 7.17185Z" stroke="white" stroke-width="1.5" stroke-linecap="round" stroke-linejoin="round"/>
<path fill-rule="evenodd" clip-rule="evenodd" d="M21.0005 17.7597C21.0005 19.7883 19.3553 21.4326 17.3267 21.4326C15.2981 21.4326 13.6538 19.7883 13.6538 17.7597C13.6538 15.7311 15.2981 14.0859 17.3267 14.0859C19.3553 14.0859 21.0005 15.7311 21.0005 17.7597Z" stroke="white" stroke-width="1.5" stroke-linecap="round" stroke-linejoin="round"/>
<path fill-rule="evenodd" clip-rule="evenodd" d="M10.3467 17.7597C10.3467 19.7883 8.7024 21.4326 6.6729 21.4326C4.6452 21.4326 3 19.7883 3 17.7597C3 15.7311 4.6452 14.0859 6.6729 14.0859C8.7024 14.0859 10.3467 15.7311 10.3467 17.7597Z" stroke="white" stroke-width="1.5" stroke-linecap="round" stroke-linejoin="round"/>
</svg>
