<svg width="49" height="49" viewBox="0 0 49 49" fill="none" xmlns="http://www.w3.org/2000/svg">
<circle cx="24.5" cy="24.5" r="24.5" fill="#FFF9F1"/>
<path d="M36.7588 19.1982L33.9088 17.0022C33.7151 16.8779 33.5046 16.7821 33.2836 16.7178C33.0635 16.6466 32.8344 16.607 32.6032 16.6002H24.4L25.3612 22.6002H32.6032C32.8 22.6002 33.046 22.5558 33.2824 22.4826C33.5188 22.4094 33.7468 22.3086 33.9076 22.1994L36.7576 20.001C36.9196 19.8918 37 19.7466 37 19.6002C37 19.4538 36.9196 19.3086 36.7588 19.1982ZM23.2 14.2002H22C21.8409 14.2002 21.6883 14.2634 21.5757 14.3759C21.4632 14.4885 21.4 14.6411 21.4 14.8002V19.0002H17.3968C17.1976 19.0002 16.9528 19.0446 16.7164 19.119C16.4788 19.191 16.252 19.2906 16.0912 19.4022L13.2412 21.5982C13.0792 21.7074 13 21.8538 13 22.0002C13 22.1454 13.0792 22.2906 13.2412 22.4022L16.0912 24.6006C16.252 24.7098 16.4788 24.8106 16.7164 24.8826C16.9528 24.9558 17.1976 25.0002 17.3968 25.0002H21.4V35.2002C21.4 35.3593 21.4632 35.5119 21.5757 35.6245C21.6883 35.737 21.8409 35.8002 22 35.8002H23.2C23.3591 35.8002 23.5117 35.737 23.6243 35.6245C23.7368 35.5119 23.8 35.3593 23.8 35.2002V14.8002C23.8 14.6411 23.7368 14.4885 23.6243 14.3759C23.5117 14.2634 23.3591 14.2002 23.2 14.2002Z" fill="#DA7B07"/>
</svg>
