<svg width="22" height="19" viewBox="0 0 22 19" fill="none" xmlns="http://www.w3.org/2000/svg">
<path fill-rule="evenodd" clip-rule="evenodd" d="M10.9729 9.63845H10.9989C13.5359 9.63845 15.5999 7.57545 15.5999 5.03945C15.5999 2.50245 13.5359 0.439453 10.9989 0.439453C8.46294 0.439453 6.39894 2.50245 6.39894 5.03745C6.39294 7.56645 8.44294 9.63045 10.9729 9.63845ZM7.89894 5.03945C7.89894 3.33045 9.28994 1.93945 10.9989 1.93945C12.7089 1.93945 14.0999 3.33045 14.0999 5.03945C14.0999 6.74845 12.7089 8.13845 10.9989 8.13845H10.9749C9.27394 8.13245 7.89494 6.74345 7.89894 5.03945Z" fill="#3F444D"/>
<path fill-rule="evenodd" clip-rule="evenodd" d="M4.24316 15.3555C4.24316 18.5575 9.32816 18.5575 10.9992 18.5575C12.6702 18.5575 17.7552 18.5575 17.7552 15.3385C17.7552 12.9115 14.7252 10.9355 10.9992 10.9355C7.27316 10.9355 4.24316 12.9175 4.24316 15.3555ZM5.74316 15.3555C5.74316 13.9775 7.99116 12.4355 10.9992 12.4355C14.0072 12.4355 16.2552 13.9685 16.2552 15.3385C16.2552 16.7595 13.3962 17.0575 10.9992 17.0575C8.60216 17.0575 5.74316 16.7625 5.74316 15.3555Z" fill="#3F444D"/>
<path d="M17.3897 8.58103C17.0577 8.58103 16.7547 8.36003 16.6647 8.02503C16.5577 7.62503 16.7957 7.21403 17.1957 7.10603C18.1327 6.85503 18.7877 6.00103 18.7877 5.02903C18.7877 4.01203 18.0677 3.12603 17.0737 2.92403C16.6677 2.84103 16.4067 2.44403 16.4887 2.03803C16.5727 1.63303 16.9667 1.37703 17.3737 1.45303C19.0627 1.79803 20.2877 3.30203 20.2877 5.02903C20.2877 6.67903 19.1757 8.12903 17.5837 8.55603C17.5187 8.57303 17.4527 8.58103 17.3897 8.58103Z" fill="#3F444D"/>
<path d="M19.1912 14.8976C19.2732 15.2436 19.5802 15.4756 19.9202 15.4756C19.9782 15.4756 20.0352 15.4686 20.0932 15.4556C21.1642 15.2036 21.9732 14.2486 21.9732 13.2356C21.9732 11.6646 20.0662 10.2346 17.9712 10.2346C17.5572 10.2346 17.2212 10.5706 17.2212 10.9846C17.2212 11.3986 17.5572 11.7346 17.9712 11.7346C19.4412 11.7346 20.4732 12.7076 20.4732 13.2356C20.4732 13.4826 20.2222 13.8846 19.7492 13.9956C19.3462 14.0906 19.0962 14.4946 19.1912 14.8976Z" fill="#3F444D"/>
<path d="M4.61143 8.58103C4.54843 8.58103 4.48243 8.57303 4.41843 8.55603C2.82443 8.13003 1.71143 6.68003 1.71143 5.02903C1.71143 3.30203 2.93743 1.79803 4.62643 1.45303C5.03343 1.37703 5.42843 1.63303 5.51143 2.03803C5.59343 2.44403 5.33243 2.84103 4.92643 2.92403C3.93243 3.12603 3.21143 4.01203 3.21143 5.02903C3.21143 6.00103 3.86643 6.85503 4.80443 7.10603C5.20543 7.21403 5.44243 7.62503 5.33643 8.02403C5.24643 8.36003 4.94343 8.58103 4.61143 8.58103Z" fill="#3F444D"/>
<path d="M1.90686 15.4556C1.96486 15.4696 2.02186 15.4756 2.07986 15.4756C2.41986 15.4756 2.72686 15.2436 2.80886 14.8976C2.90386 14.4946 2.65386 14.0896 2.25086 13.9956C1.77786 13.8846 1.52686 13.4826 1.52686 13.2356C1.52686 12.7076 2.55886 11.7346 4.02886 11.7346C4.44286 11.7346 4.77886 11.3986 4.77886 10.9846C4.77886 10.5706 4.44286 10.2346 4.02886 10.2346C1.93386 10.2346 0.0268555 11.6646 0.0268555 13.2356C0.0268555 14.2486 0.835855 15.2046 1.90686 15.4556Z" fill="#3F444D"/>
</svg>
