<svg width="80" height="85" viewBox="0 0 80 85" fill="none" xmlns="http://www.w3.org/2000/svg">
<ellipse cx="40" cy="42.5" rx="39.5" ry="42.5" fill="#FFECE8"/>
<g clip-path="url(#clip0_6_59199)">
<path d="M41.0127 21.7949C38.7845 21.7949 36.9615 23.7565 36.9615 26.1539C36.9615 28.5513 38.7845 30.5129 41.0127 30.5129C43.2409 30.5129 45.064 28.5513 45.064 26.1539C45.064 23.7565 43.2409 21.7949 41.0127 21.7949ZM34.9358 32.6924C31.5732 32.6924 28.8589 35.6129 28.8589 39.2308H32.9102C32.9102 38.0103 33.8015 37.0513 34.9358 37.0513C36.0702 37.0513 36.9615 38.0103 36.9615 39.2308C36.9615 40.4513 32.9102 46.3795 32.9102 50.1283C32.9102 53.877 35.6245 56.6667 38.9871 56.6667C42.3497 56.6667 45.064 53.7462 45.064 50.1283H41.0127C41.0127 51.3488 40.1215 52.3077 38.9871 52.3077C37.8527 52.3077 36.9615 51.3488 36.9615 50.1283C36.9615 48.559 41.0127 42.1077 41.0127 39.2308C41.0127 35.7001 38.2984 32.6924 34.9358 32.6924Z" fill="#D83A3A"/>
</g>
<defs>
<clipPath id="clip0_6_59199">
<rect width="32.4103" height="34.8718" fill="white" transform="translate(20.7563 21.7949)"/>
</clipPath>
</defs>
</svg>
