<svg width="24" height="25" viewBox="0 0 24 25" fill="none" xmlns="http://www.w3.org/2000/svg">
<path d="M6.75 21.498H17.25C17.75 21.498 18 21.748 18 22.248C18 22.748 17.75 22.998 17.25 22.998H6.75C6.25 22.998 6 22.748 6 22.248C6 21.748 6.25 21.498 6.75 21.498Z" fill="#3F444D"/>
<path d="M18.75 10.248C18.75 8.45784 18.0388 6.74095 16.773 5.47508C15.5071 4.20921 13.7902 3.49805 12 3.49805C10.2098 3.49805 8.4929 4.20921 7.22703 5.47508C5.96116 6.74095 5.25 8.45784 5.25 10.248C5.25 13.017 7.4655 16.626 12 20.949C16.5345 16.626 18.75 13.017 18.75 10.248ZM12 22.998C6.4995 17.9985 3.75 13.7475 3.75 10.248C3.75 8.06001 4.61919 5.96159 6.16637 4.41442C7.71354 2.86724 9.81196 1.99805 12 1.99805C14.188 1.99805 16.2865 2.86724 17.8336 4.41442C19.3808 5.96159 20.25 8.06001 20.25 10.248C20.25 13.7475 17.5005 17.9985 12 22.998Z" fill="#3F444D"/>
<path d="M12 12.498C12.5967 12.498 13.169 12.261 13.591 11.839C14.0129 11.4171 14.25 10.8448 14.25 10.248C14.25 9.65131 14.0129 9.07901 13.591 8.65706C13.169 8.2351 12.5967 7.99805 12 7.99805C11.4033 7.99805 10.831 8.2351 10.409 8.65706C9.98705 9.07901 9.75 9.65131 9.75 10.248C9.75 10.8448 9.98705 11.4171 10.409 11.839C10.831 12.261 11.4033 12.498 12 12.498ZM12 13.998C11.0054 13.998 10.0516 13.603 9.34835 12.8997C8.64509 12.1964 8.25 11.2426 8.25 10.248C8.25 9.25348 8.64509 8.29966 9.34835 7.5964C10.0516 6.89314 11.0054 6.49805 12 6.49805C12.9946 6.49805 13.9484 6.89314 14.6517 7.5964C15.3549 8.29966 15.75 9.25348 15.75 10.248C15.75 11.2426 15.3549 12.1964 14.6517 12.8997C13.9484 13.603 12.9946 13.998 12 13.998Z" fill="#3F444D"/>
</svg>
