<svg width="24" height="25" viewBox="0 0 24 25" fill="none" xmlns="http://www.w3.org/2000/svg">
<path fill-rule="evenodd" clip-rule="evenodd" d="M9 12.6191C9 12.2049 9.33579 11.8691 9.75 11.8691H21.791C22.2052 11.8691 22.541 12.2049 22.541 12.6191C22.541 13.0334 22.2052 13.3691 21.791 13.3691H9.75C9.33579 13.3691 9 13.0334 9 12.6191Z" fill="#3F444D"/>
<path fill-rule="evenodd" clip-rule="evenodd" d="M18.3319 9.17389C18.6242 8.88039 19.099 8.87942 19.3925 9.17171L22.3205 12.0877C22.4618 12.2284 22.5413 12.4197 22.5413 12.6191C22.5413 12.8186 22.4618 13.0098 22.3205 13.1505L19.3925 16.0665C19.099 16.3588 18.6242 16.3579 18.3319 16.0644C18.0396 15.7709 18.0405 15.296 18.334 15.0037L20.7284 12.6191L18.334 10.2345C18.0405 9.94225 18.0396 9.46738 18.3319 9.17389Z" fill="#3F444D"/>
<path fill-rule="evenodd" clip-rule="evenodd" d="M14.2878 4.94814C15.0645 5.52369 15.4528 6.4646 15.6125 8.19689C15.6505 8.60935 16.0157 8.9129 16.4282 8.87488C16.8406 8.83686 17.1442 8.47167 17.1062 8.0592C16.9358 6.2115 16.4891 4.7124 15.1809 3.74296C13.9265 2.8135 12.0367 2.49805 9.35933 2.49805C5.8095 2.49805 3.62696 3.05459 2.50689 4.87799C1.97305 5.74704 1.73714 6.82334 1.6225 8.05544C1.50832 9.2827 1.50832 10.7571 1.50833 12.4664V12.5297C1.50832 14.239 1.50832 15.7134 1.6225 16.9407C1.73714 18.1727 1.97305 19.2491 2.50689 20.1181C3.62696 21.9415 5.8095 22.498 9.35933 22.498C12.0367 22.498 13.9265 22.1826 15.1809 21.2531C16.4891 20.2837 16.9358 18.7846 17.1062 16.9369C17.1442 16.5244 16.8406 16.1592 16.4282 16.1212C16.0157 16.0832 15.6505 16.3867 15.6125 16.7992C15.4528 18.5315 15.0645 19.4724 14.2878 20.048C13.4571 20.6635 12.0119 20.998 9.35933 20.998C5.80815 20.998 4.4402 20.3996 3.78501 19.333C3.43122 18.757 3.22332 17.9546 3.11605 16.8017C3.00904 15.6515 3.00833 14.2452 3.00833 12.498C3.00833 10.7508 3.00904 9.34459 3.11605 8.1944C3.22332 7.0415 3.43122 6.23905 3.78501 5.6631C4.4402 4.5965 5.80815 3.99805 9.35933 3.99805C12.0119 3.99805 13.4571 4.33259 14.2878 4.94814Z" fill="#3F444D"/>
</svg>
