<svg width="30" height="28" viewBox="0 0 30 28" fill="none" xmlns="http://www.w3.org/2000/svg">
<path d="M3.125 11.334L11.3444 16.8136C12.0442 17.2801 12.9558 17.2801 13.6556 16.8136L21.875 11.334M5.20833 22.7923H19.7917C20.9423 22.7923 21.875 21.8596 21.875 20.709V10.2923C21.875 9.14172 20.9423 8.20898 19.7917 8.20898H5.20833C4.05774 8.20898 3.125 9.14172 3.125 10.2923V20.709C3.125 21.8596 4.05774 22.7923 5.20833 22.7923Z" stroke="#3F3F46" stroke-width="1.2" stroke-linecap="round" stroke-linejoin="round"/>
<circle cx="21.5" cy="9.5" r="8.5" fill="#4F46E5"/>
<path d="M18.7243 13V11.867L20.9463 9.546C21.3863 9.084 21.7236 8.71733 21.9583 8.446C22.2003 8.16733 22.3689 7.929 22.4643 7.731C22.5596 7.533 22.6073 7.33133 22.6073 7.126C22.6073 6.78133 22.4973 6.51 22.2773 6.312C22.0646 6.114 21.7896 6.015 21.4523 6.015C21.1003 6.015 20.7959 6.11767 20.5393 6.323C20.2826 6.521 20.0956 6.81433 19.9783 7.203L18.6693 6.796C18.7573 6.36333 18.9369 5.98933 19.2083 5.674C19.4796 5.35133 19.8096 5.10567 20.1983 4.937C20.5943 4.761 21.0123 4.673 21.4523 4.673C21.9803 4.673 22.4423 4.76833 22.8383 4.959C23.2416 5.14967 23.5533 5.41733 23.7733 5.762C24.0006 6.10667 24.1143 6.51 24.1143 6.972C24.1143 7.26533 24.0593 7.555 23.9493 7.841C23.8393 8.127 23.6743 8.42033 23.4543 8.721C23.2343 9.01433 22.9483 9.34433 22.5963 9.711L20.6713 11.735H24.2243V13H18.7243Z" fill="white"/>
</svg>
