<svg width="21" height="20" viewBox="0 0 21 20" fill="none" xmlns="http://www.w3.org/2000/svg">
<path d="M10.6663 10.834C11.1266 10.834 11.4997 10.4609 11.4997 10.0007C11.4997 9.54041 11.1266 9.16732 10.6663 9.16732C10.2061 9.16732 9.83301 9.54041 9.83301 10.0007C9.83301 10.4609 10.2061 10.834 10.6663 10.834Z" stroke="#98A2B3" stroke-width="1.66667" stroke-linecap="round" stroke-linejoin="round"/>
<path d="M10.6663 5.00065C11.1266 5.00065 11.4997 4.62755 11.4997 4.16732C11.4997 3.70708 11.1266 3.33398 10.6663 3.33398C10.2061 3.33398 9.83301 3.70708 9.83301 4.16732C9.83301 4.62755 10.2061 5.00065 10.6663 5.00065Z" stroke="#98A2B3" stroke-width="1.66667" stroke-linecap="round" stroke-linejoin="round"/>
<path d="M10.6663 16.6673C11.1266 16.6673 11.4997 16.2942 11.4997 15.834C11.4997 15.3737 11.1266 15.0007 10.6663 15.0007C10.2061 15.0007 9.83301 15.3737 9.83301 15.834C9.83301 16.2942 10.2061 16.6673 10.6663 16.6673Z" stroke="#98A2B3" stroke-width="1.66667" stroke-linecap="round" stroke-linejoin="round"/>
</svg>
