<svg width="25" height="24" viewBox="0 0 25 24" fill="none" xmlns="http://www.w3.org/2000/svg">
<path d="M16.25 1.5C15.1959 1.49976 14.1565 1.74642 13.2149 2.22023C12.2734 2.69404 11.4559 3.38181 10.828 4.22844C10.2001 5.07506 9.77925 6.057 9.59917 7.09555C9.41909 8.13411 9.48479 9.20041 9.791 10.209L2 18V22.5H6.5L14.291 14.709C15.2194 14.9908 16.1977 15.0692 17.1591 14.9387C18.1206 14.8083 19.0426 14.4721 19.8624 13.953C20.6821 13.434 21.3804 12.7444 21.9095 11.9311C22.4386 11.1178 22.7862 10.2 22.9285 9.24025C23.0709 8.28049 23.0046 7.30132 22.7343 6.36948C22.464 5.43764 21.996 4.57502 21.3622 3.84042C20.7283 3.10582 19.9436 2.51649 19.0614 2.11261C18.1792 1.70872 17.2203 1.49978 16.25 1.5ZM16.25 13.5C15.7336 13.4997 15.2201 13.4234 14.726 13.2735L13.8658 13.0125L13.2305 13.6478L10.8448 16.0335L9.8105 15L8.75 16.0605L9.78425 17.0947L8.59475 18.2843L7.5605 17.25L6.5 18.3105L7.53425 19.3447L5.879 21H3.5V18.621L10.8515 11.2695L11.4875 10.6342L11.2265 9.774C10.9059 8.71724 10.9268 7.58631 11.286 6.54207C11.6453 5.49784 12.3247 4.59347 13.2275 3.95762C14.1304 3.32177 15.2108 2.98681 16.315 3.0004C17.4192 3.01398 18.4911 3.37542 19.378 4.03329C20.265 4.69116 20.9219 5.61197 21.2554 6.66473C21.5888 7.71749 21.5818 8.84859 21.2354 9.89714C20.8889 10.9457 20.2206 11.8583 19.3256 12.5051C18.4305 13.152 17.3543 13.5001 16.25 13.5Z" fill="#DA7B07"/>
<path d="M17 9C17.8284 9 18.5 8.32843 18.5 7.5C18.5 6.67157 17.8284 6 17 6C16.1716 6 15.5 6.67157 15.5 7.5C15.5 8.32843 16.1716 9 17 9Z" fill="#DA7B07"/>
</svg>
