<svg width="24" height="25" viewBox="0 0 24 25" fill="none" xmlns="http://www.w3.org/2000/svg">
<path fill-rule="evenodd" clip-rule="evenodd" d="M11.9625 12.3902H11.9935C14.8255 12.3902 17.1295 10.0862 17.1295 7.25419C17.1295 4.42219 14.8255 2.11719 11.9935 2.11719C9.16048 2.11719 6.85648 4.42219 6.85648 7.25119C6.85148 8.62019 7.38048 9.90819 8.34448 10.8792C9.30748 11.8492 10.5925 12.3862 11.9625 12.3902ZM8.35648 7.25419C8.35648 5.24919 9.98848 3.61719 11.9935 3.61719C13.9985 3.61719 15.6295 5.24919 15.6295 7.25419C15.6295 9.25919 13.9985 10.8902 11.9935 10.8902H11.9655C10.9975 10.8882 10.0905 10.5082 9.40848 9.82119C8.72648 9.13519 8.35348 8.22419 8.35648 7.25419Z" fill="#3F444D"/>
<path fill-rule="evenodd" clip-rule="evenodd" d="M4.40625 19.2541C4.40625 22.8791 10.1222 22.8791 12.0002 22.8791C13.8783 22.8791 19.5953 22.8791 19.5953 19.2321C19.5953 16.4391 16.1173 14.0791 12.0002 14.0791C7.88425 14.0791 4.40625 16.4491 4.40625 19.2541ZM5.90625 19.2541C5.90625 17.5191 8.51225 15.5791 12.0002 15.5791C15.4893 15.5791 18.0953 17.5081 18.0953 19.2321C18.0953 20.6561 16.0443 21.3791 12.0002 21.3791C7.95725 21.3791 5.90625 20.6641 5.90625 19.2541Z" fill="#3F444D"/>
</svg>
