<svg width="24" height="25" viewBox="0 0 24 25" fill="none" xmlns="http://www.w3.org/2000/svg">
<path fill-rule="evenodd" clip-rule="evenodd" d="M8.74902 12.4978C8.74902 14.2898 10.207 15.7478 11.999 15.7478C13.791 15.7478 15.249 14.2898 15.249 12.4978C15.249 10.7058 13.791 9.2478 11.999 9.2478C10.207 9.2478 8.74902 10.7058 8.74902 12.4978ZM10.249 12.4978C10.249 11.5328 11.034 10.7478 11.999 10.7478C12.964 10.7478 13.749 11.5328 13.749 12.4978C13.749 13.4628 12.964 14.2478 11.999 14.2478C11.034 14.2478 10.249 13.4628 10.249 12.4978Z" fill="#3F444D"/>
<path fill-rule="evenodd" clip-rule="evenodd" d="M8.77353 19.506C8.77353 21.294 10.2205 22.748 11.9985 22.748C13.7765 22.748 15.2235 21.294 15.2235 19.506C15.2235 19.083 15.5035 18.876 15.6245 18.806C15.7435 18.739 16.0545 18.604 16.4105 18.809C17.1555 19.243 18.0235 19.357 18.8555 19.135C19.6895 18.911 20.3865 18.373 20.8175 17.621C21.7045 16.075 21.1745 14.09 19.6375 13.196C19.2785 12.986 19.2395 12.638 19.2395 12.498C19.2395 12.358 19.2785 12.01 19.6385 11.801C21.1745 10.908 21.7035 8.92305 20.8175 7.37505C20.3855 6.62205 19.6885 6.08505 18.8545 5.86105C18.0225 5.64105 17.1555 5.75605 16.4115 6.18805C16.0555 6.39305 15.7415 6.25705 15.6245 6.18905C15.5035 6.12005 15.2235 5.91305 15.2235 5.49005C15.2235 3.70205 13.7765 2.24805 11.9985 2.24805C10.2205 2.24805 8.77353 3.70205 8.77353 5.49005C8.77353 5.91305 8.49353 6.12005 8.37253 6.18905C8.25453 6.26005 7.94153 6.39405 7.58753 6.18805C6.84253 5.75605 5.97553 5.64105 5.14253 5.86105C4.30853 6.08505 3.61153 6.62205 3.17953 7.37505C2.29353 8.92305 2.82253 10.908 4.35853 11.801C4.71853 12.01 4.75653 12.358 4.75653 12.498C4.75653 12.637 4.71853 12.986 4.35853 13.195C2.82253 14.09 2.29353 16.075 3.17953 17.621C3.61053 18.373 4.30753 18.91 5.14153 19.135C5.97253 19.357 6.84153 19.242 7.58853 18.808C7.94153 18.603 8.25453 18.739 8.37253 18.806C8.49253 18.876 8.77353 19.083 8.77353 19.506ZM9.11953 17.507C8.76353 17.302 8.37253 17.199 7.98153 17.199C7.58653 17.199 7.19253 17.303 6.83353 17.512C6.43553 17.742 5.97253 17.804 5.53053 17.685C5.08553 17.566 4.71153 17.278 4.48153 16.875C4.00253 16.042 4.28653 14.972 5.11353 14.492C5.82953 14.075 6.25653 13.329 6.25653 12.498C6.25653 11.667 5.82953 10.921 5.11253 10.504C4.28753 10.023 4.00353 8.95505 4.48053 8.12105C4.71153 7.71805 5.08553 7.42905 5.53053 7.31005C5.97453 7.19405 6.43653 7.25505 6.83453 7.48505C7.54953 7.90105 8.40453 7.90205 9.12053 7.49005C9.84253 7.07405 10.2735 6.32705 10.2735 5.49005C10.2735 4.52905 11.0475 3.74805 11.9985 3.74805C12.9495 3.74805 13.7235 4.52905 13.7235 5.49005C13.7235 6.32605 14.1535 7.07305 14.8755 7.48905C15.5925 7.90205 16.4475 7.89905 17.1645 7.48505C17.5615 7.25505 18.0225 7.19205 18.4665 7.31005C18.9125 7.42905 19.2855 7.71805 19.5165 8.12105C19.9935 8.95505 19.7105 10.024 18.8835 10.504C18.1675 10.921 17.7405 11.667 17.7405 12.498C17.7405 13.329 18.1675 14.075 18.8835 14.492C19.7105 14.972 19.9945 16.042 19.5165 16.875C19.2855 17.278 18.9125 17.566 18.4665 17.685C18.0235 17.804 17.5615 17.742 17.1645 17.512C16.4495 17.096 15.5935 17.095 14.8765 17.507C14.1545 17.922 13.7235 18.67 13.7235 19.506C13.7235 20.467 12.9495 21.248 11.9985 21.248C11.0475 21.248 10.2735 20.467 10.2735 19.506C10.2735 18.669 9.84253 17.922 9.11953 17.507Z" fill="#3F444D"/>
</svg>
