<svg width="24" height="25" viewBox="0 0 24 25" fill="none" xmlns="http://www.w3.org/2000/svg">
<path fill-rule="evenodd" clip-rule="evenodd" d="M8.3291 16.6328C8.3291 16.2186 8.66489 15.8828 9.0791 15.8828H14.8941C15.3083 15.8828 15.6441 16.2186 15.6441 16.6328C15.6441 17.047 15.3083 17.3828 14.8941 17.3828H9.0791C8.66489 17.3828 8.3291 17.047 8.3291 16.6328Z" fill="#3F444D"/>
<path fill-rule="evenodd" clip-rule="evenodd" d="M6.81025 6.4757C6.3977 6.85783 6.02729 7.18627 5.69801 7.47649C5.65154 7.51746 5.60603 7.55753 5.56144 7.5968C5.28253 7.8424 5.03964 8.05628 4.82146 8.25768C4.31615 8.72412 3.99696 9.07632 3.77124 9.47021C3.31874 10.2598 3.15039 11.367 3.15039 14.211C3.15039 16.2671 3.27345 17.7432 3.55155 18.8133C3.82454 19.8639 4.23151 20.4659 4.77061 20.8529C5.33365 21.257 6.13743 21.4978 7.34784 21.6225C8.55705 21.7472 10.0654 21.748 11.9864 21.748C13.9074 21.748 15.4157 21.7472 16.6249 21.6225C17.8354 21.4978 18.6391 21.257 19.2022 20.8529C19.7413 20.4659 20.1482 19.8639 20.4212 18.8133C20.6993 17.7432 20.8224 16.2671 20.8224 14.211C20.8224 11.3669 20.6543 10.2597 20.202 9.47008C19.9764 9.07623 19.6573 8.72405 19.1521 8.25763C18.9338 8.05605 18.6907 7.84195 18.4115 7.59606C18.3671 7.55702 18.3219 7.51719 18.2757 7.47647C17.9465 7.18625 17.576 6.8578 17.1635 6.47566C16.9193 6.27845 16.6663 6.06507 16.4041 5.84393C15.833 5.36218 15.2181 4.84358 14.5548 4.37499C13.5699 3.67922 12.6779 3.24805 11.9584 3.24805C11.2413 3.24805 10.3614 3.67926 9.38952 4.37608C8.75523 4.83083 8.175 5.32504 7.62981 5.78942C7.34815 6.02933 7.07583 6.26127 6.81025 6.4757ZM8.51551 3.15702C9.51584 2.43983 10.7325 1.74805 11.9584 1.74805C13.1809 1.74805 14.4074 2.43437 15.4202 3.14985C16.1362 3.65564 16.8445 4.25254 17.4374 4.7522C17.6903 4.96534 17.9222 5.16078 18.1248 5.32392C18.1384 5.33486 18.1516 5.34627 18.1644 5.35813C18.5704 5.73467 18.9358 6.05875 19.2676 6.35122C19.3126 6.39089 19.3571 6.4301 19.4011 6.46888C19.679 6.71358 19.9372 6.94095 20.1696 7.15552C20.7089 7.65342 21.1628 8.12962 21.5036 8.72451C22.184 9.91238 22.3224 11.4242 22.3224 14.211C22.3224 16.2985 22.2006 17.9301 21.873 19.1906C21.5404 20.4708 20.9809 21.4226 20.0769 22.0715C19.1968 22.7032 18.0807 22.9804 16.7787 23.1146C15.4841 23.2481 13.8998 23.2481 12.0235 23.248H11.9492C10.073 23.2481 8.4887 23.2481 7.19404 23.1146C5.89204 22.9804 4.77601 22.7032 3.89592 22.0715C2.9919 21.4226 2.43243 20.4708 2.09976 19.1906C1.7722 17.9301 1.65039 16.2985 1.65039 14.211C1.65039 11.4241 1.78904 9.91228 2.46979 8.72439C2.81069 8.12953 3.26469 7.65334 3.80404 7.15548C4.03622 6.94115 4.29415 6.71405 4.5717 6.46966C4.61604 6.43062 4.66087 6.39114 4.70619 6.3512C5.038 6.05874 5.40338 5.73466 5.8094 5.35813C5.82223 5.34623 5.83547 5.33479 5.8491 5.32382C6.06122 5.15306 6.30878 4.94258 6.58032 4.71172C7.1543 4.22371 7.83544 3.6446 8.51551 3.15702Z" fill="#3F444D"/>
</svg>
