<svg width="15" height="17" viewBox="0 0 15 17" fill="none" xmlns="http://www.w3.org/2000/svg">
<path d="M3.99971 11.5012C2.45331 11.5012 1.19971 10.2476 1.19971 8.70117C1.19971 7.36624 2.1339 6.24949 3.3842 5.96904C3.32889 5.72193 3.29971 5.46496 3.29971 5.20117C3.29971 3.26818 4.86671 1.70117 6.79971 1.70117C8.49322 1.70117 9.90581 2.90395 10.2298 4.50186C10.2531 4.5014 10.2764 4.50117 10.2997 4.50117C12.2327 4.50117 13.7997 6.06818 13.7997 8.00117C13.7997 9.69444 12.5973 11.1069 10.9997 11.4312M9.59971 9.40117L7.49971 7.30117M7.49971 7.30117L5.39971 9.40117M7.49971 7.30117L7.49971 15.7012" stroke="#9CA3AF" stroke-width="1.67" stroke-linecap="round" stroke-linejoin="round"/>
</svg>
