<svg width="612" height="70" viewBox="0 0 612 70" fill="none" xmlns="http://www.w3.org/2000/svg">
<mask id="mask0_922_145368" style="mask-type:alpha" maskUnits="userSpaceOnUse" x="0" y="0" width="612" height="70">
<mask id="path-1-inside-1_922_145368" fill="white">
<rect x="0.5" width="611.5" height="70" rx="5"/>
</mask>
<rect x="0.5" width="611.5" height="70" rx="5" fill="white"/>
<rect x="0.5" width="611.5" height="70" rx="5" stroke="#BBBBBB" stroke-width="18" stroke-dasharray="2 2" mask="url(#path-1-inside-1_922_145368)"/>
</mask>
<g mask="url(#mask0_922_145368)">
<rect x="1" y="0.5" width="610.5" height="69" stroke="#72747D" stroke-dasharray="2 2"/>
<path d="M154.746 38.322C153.2 38.322 151.946 37.0684 151.946 35.522C151.946 34.187 152.88 33.0703 154.131 32.7898C154.075 32.5427 154.046 32.2858 154.046 32.022C154.046 30.089 155.613 28.522 157.546 28.522C159.24 28.522 160.652 29.7247 160.976 31.3227C161 31.3222 161.023 31.322 161.046 31.322C162.979 31.322 164.546 32.889 164.546 34.822C164.546 36.5152 163.344 37.9277 161.746 38.252M160.346 36.222L158.246 34.122M158.246 34.122L156.146 36.222M158.246 34.122L158.246 42.522" stroke="#9CA3AF" stroke-width="1.67" stroke-linecap="round" stroke-linejoin="round"/>
<path d="M179.511 41.522V31.5825H182.484C185.636 31.5825 187.646 33.6265 187.646 36.5659C187.646 39.4985 185.697 41.522 182.525 41.522H179.511ZM180.728 40.4146H182.45C184.836 40.4146 186.388 38.8013 186.388 36.5659C186.388 34.2896 184.822 32.6899 182.505 32.6899H180.728V40.4146ZM192.965 34.6313C193.067 34.6313 193.163 34.6313 193.245 34.645V35.896C193.081 35.8823 192.91 35.8755 192.794 35.8755C191.502 35.8755 190.723 36.8735 190.723 38.2407V41.522H189.588V34.7134H190.723V35.9028H190.75C191.256 35.0962 192.042 34.6313 192.965 34.6313ZM199.706 34.7134L200.841 34.7065V41.522H199.754V40.4419H199.74C199.187 41.1733 198.353 41.6108 197.348 41.6108C195.468 41.6108 194.005 40.2505 194.005 38.1587C194.005 36.1489 195.413 34.6313 197.341 34.6313C198.271 34.6313 199.111 35.0073 199.679 35.7183H199.706V34.7134ZM197.457 40.5718C198.681 40.5718 199.747 39.6079 199.747 38.1655C199.747 36.7642 198.776 35.6636 197.471 35.6636C196.172 35.6636 195.16 36.6479 195.16 38.1655C195.16 39.5396 196.069 40.5718 197.457 40.5718ZM208.149 34.7134L209.284 34.7065V41.0093C209.284 42.9712 208.307 44.3726 205.935 44.3726C204.916 44.3726 203.973 44.1265 203.159 43.6343L203.433 42.5884C204.226 43.0396 204.909 43.3062 205.88 43.3062C207.418 43.3062 208.177 42.4106 208.177 41.3101V40.3599H208.143C207.596 41.0093 206.81 41.3989 205.825 41.3989C204.014 41.3989 202.53 40.0522 202.53 38.022C202.53 36.0942 203.918 34.6313 205.771 34.6313C206.68 34.6313 207.534 34.9868 208.122 35.6567H208.149V34.7134ZM205.921 40.3325C207.295 40.3325 208.197 39.3276 208.197 37.9673C208.197 36.5933 207.206 35.6772 205.921 35.6772C204.615 35.6772 203.692 36.6685 203.692 37.981C203.692 39.4302 204.697 40.3325 205.921 40.3325ZM215.596 41.522V35.6978H214.762V34.7134H215.596V33.3325C215.596 31.8628 216.3 31.1313 217.51 31.1313C218.193 31.1313 218.72 31.3364 219.096 31.5552L218.843 32.5396C218.412 32.314 218.022 32.1841 217.653 32.1841C217.093 32.1841 216.724 32.5396 216.724 33.4419V34.7134H218.658V35.6978H216.724V41.522H215.596ZM220.717 33.4487C220.259 33.4487 219.91 33.0933 219.91 32.6558C219.91 32.2114 220.259 31.856 220.717 31.856C221.161 31.856 221.523 32.2114 221.523 32.6558C221.523 33.0933 221.161 33.4487 220.717 33.4487ZM220.143 41.522V34.7134H221.271V41.522H220.143ZM223.685 41.522V31.2202H224.813V41.522H223.685ZM233.133 38.0151C233.133 38.1929 233.106 38.439 233.099 38.48H227.862C228.006 39.7446 228.908 40.5718 230.132 40.5718C230.98 40.5718 231.629 40.1821 232.053 39.6558L232.846 40.3325C232.265 41.0845 231.335 41.6108 230.091 41.6108C228.156 41.6108 226.7 40.2026 226.7 38.1245C226.7 36.0669 228.122 34.6313 229.961 34.6313C231.861 34.6313 233.133 36.0601 233.133 38.0151ZM230.023 35.6772C228.956 35.6772 228.102 36.3813 227.89 37.5366H232.005C231.827 36.4224 231.103 35.6772 230.023 35.6772ZM242.459 34.6313V34.6245C243.936 34.6245 244.934 35.4927 244.934 37.4341V41.5288H243.799V37.7622C243.799 36.2173 243.129 35.6704 242.131 35.6704C240.777 35.6704 239.923 36.5591 239.923 38.0903V41.522H238.788V31.2202H239.923V35.814H239.95C240.531 35.0415 241.42 34.6313 242.459 34.6313ZM253.028 38.0151C253.028 38.1929 253.001 38.439 252.994 38.48H247.758C247.901 39.7446 248.804 40.5718 250.027 40.5718C250.875 40.5718 251.524 40.1821 251.948 39.6558L252.741 40.3325C252.16 41.0845 251.231 41.6108 249.986 41.6108C248.052 41.6108 246.596 40.2026 246.596 38.1245C246.596 36.0669 248.018 34.6313 249.857 34.6313C251.757 34.6313 253.028 36.0601 253.028 38.0151ZM249.918 35.6772C248.852 35.6772 247.997 36.3813 247.785 37.5366H251.9C251.723 36.4224 250.998 35.6772 249.918 35.6772ZM258.163 34.6313C258.266 34.6313 258.361 34.6313 258.443 34.645V35.896C258.279 35.8823 258.108 35.8755 257.992 35.8755C256.7 35.8755 255.921 36.8735 255.921 38.2407V41.522H254.786V34.7134H255.921V35.9028H255.948C256.454 35.0962 257.24 34.6313 258.163 34.6313ZM265.608 38.0151C265.608 38.1929 265.581 38.439 265.574 38.48H260.338C260.482 39.7446 261.384 40.5718 262.608 40.5718C263.455 40.5718 264.105 40.1821 264.528 39.6558L265.321 40.3325C264.74 41.0845 263.811 41.6108 262.567 41.6108C260.632 41.6108 259.176 40.2026 259.176 38.1245C259.176 36.0669 260.598 34.6313 262.437 34.6313C264.337 34.6313 265.608 36.0601 265.608 38.0151ZM262.498 35.6772C261.432 35.6772 260.577 36.3813 260.365 37.5366H264.481C264.303 36.4224 263.578 35.6772 262.498 35.6772ZM273.192 41.6108V41.6177C271.982 41.6177 271.421 40.8726 271.421 39.4985V35.6978H270.553V34.7134H271.421V32.3823L272.556 32.2593V34.7134H274.812V35.6978H272.556V39.3276C272.556 40.1479 272.747 40.5513 273.39 40.5513C273.793 40.5513 274.217 40.3872 274.538 40.2026L274.839 41.1938C274.47 41.4058 273.998 41.6108 273.192 41.6108ZM279.194 41.6108C277.082 41.6108 275.674 40.0864 275.674 38.1313C275.674 36.1558 277.082 34.6313 279.194 34.6313C281.204 34.6313 282.701 36.0532 282.701 38.1313C282.701 40.1958 281.204 41.6108 279.194 41.6108ZM279.194 40.5718C280.507 40.5718 281.553 39.5669 281.553 38.1313C281.553 36.6753 280.514 35.6772 279.194 35.6772C277.773 35.6772 276.816 36.771 276.816 38.1313C276.816 39.478 277.786 40.5718 279.194 40.5718ZM293.06 34.7134H294.194V41.522H293.06V40.4009H293.039C292.499 41.187 291.686 41.6108 290.804 41.6108C289.238 41.6108 288.247 40.7153 288.247 38.7739V34.7134H289.375V38.4458C289.375 39.9976 289.956 40.5718 291.043 40.5718C292.123 40.5718 293.06 39.6353 293.06 38.0151V34.7134ZM299.821 34.6313C301.749 34.6313 303.157 36.1489 303.157 38.1655C303.157 40.2505 301.694 41.6177 299.815 41.6177C298.851 41.6177 298.044 41.2075 297.497 40.5171H297.47V44.2905H296.342V34.7134H297.477V35.7183H297.504C298.071 35.0073 298.899 34.6313 299.821 34.6313ZM299.705 40.5786H299.698C301.086 40.5786 301.995 39.5464 301.995 38.1724C301.995 36.6548 300.984 35.6704 299.692 35.6704C298.406 35.6704 297.436 36.771 297.436 38.1724C297.436 39.6147 298.502 40.5786 299.705 40.5786ZM305.031 41.522V31.2202H306.159V41.522H305.031ZM311.574 41.6108C309.462 41.6108 308.054 40.0864 308.054 38.1313C308.054 36.1558 309.462 34.6313 311.574 34.6313C313.584 34.6313 315.081 36.0532 315.081 38.1313C315.081 40.1958 313.584 41.6108 311.574 41.6108ZM311.574 40.5718C312.887 40.5718 313.933 39.5669 313.933 38.1313C313.933 36.6753 312.894 35.6772 311.574 35.6772C310.153 35.6772 309.195 36.771 309.195 38.1313C309.195 39.478 310.166 40.5718 311.574 40.5718ZM322.157 34.7134L323.292 34.7065V41.522H322.205V40.4419H322.192C321.638 41.1733 320.804 41.6108 319.799 41.6108C317.919 41.6108 316.456 40.2505 316.456 38.1587C316.456 36.1489 317.864 34.6313 319.792 34.6313C320.722 34.6313 321.563 35.0073 322.13 35.7183H322.157V34.7134ZM319.908 40.5718C321.132 40.5718 322.198 39.6079 322.198 38.1655C322.198 36.7642 321.228 35.6636 319.922 35.6636C318.623 35.6636 317.611 36.6479 317.611 38.1655C317.611 39.5396 318.521 40.5718 319.908 40.5718ZM330.676 31.2202H331.818V41.522H330.731V40.4487H330.71C330.17 41.1733 329.343 41.6108 328.352 41.6108C326.472 41.6108 325.009 40.2505 325.009 38.1655C325.009 36.1489 326.417 34.6313 328.338 34.6313C329.254 34.6313 330.088 35.0142 330.655 35.7251H330.676V31.2202ZM328.461 40.5718C329.657 40.5718 330.724 39.6147 330.724 38.1724C330.724 36.771 329.753 35.6704 328.475 35.6704C327.176 35.6704 326.164 36.6548 326.164 38.1724C326.164 39.5396 327.073 40.5718 328.461 40.5718ZM338.177 41.522V31.5825H339.401V41.522H338.177ZM349.977 34.6313C351.522 34.6313 352.363 35.52 352.363 37.5366V41.522H351.235V37.8442C351.235 36.313 350.722 35.6704 349.642 35.6704C348.582 35.6704 347.721 36.6138 347.721 38.145V41.522H346.593V37.8237C346.593 36.313 346.039 35.6704 344.973 35.6704C343.859 35.6704 342.997 36.6138 342.997 38.145V41.522H341.869V34.7065H342.997V35.8687H343.018C343.578 35.0688 344.419 34.6245 345.308 34.6245C346.354 34.6245 347.099 35.0483 347.461 35.9575H347.488C348.042 35.1099 348.938 34.6313 349.977 34.6313ZM359.603 34.7134L360.738 34.7065V41.0093C360.738 42.9712 359.76 44.3726 357.388 44.3726C356.369 44.3726 355.426 44.1265 354.613 43.6343L354.886 42.5884C355.679 43.0396 356.363 43.3062 357.333 43.3062C358.871 43.3062 359.63 42.4106 359.63 41.3101V40.3599H359.596C359.049 41.0093 358.263 41.3989 357.279 41.3989C355.467 41.3989 353.984 40.0522 353.984 38.022C353.984 36.0942 355.371 34.6313 357.224 34.6313C358.133 34.6313 358.988 34.9868 359.575 35.6567H359.603V34.7134ZM357.374 40.3325C358.748 40.3325 359.651 39.3276 359.651 37.9673C359.651 36.5933 358.659 35.6772 357.374 35.6772C356.069 35.6772 355.146 36.6685 355.146 37.981C355.146 39.4302 356.151 40.3325 357.374 40.3325ZM369.865 41.6108C367.753 41.6108 366.345 40.0864 366.345 38.1313C366.345 36.1558 367.753 34.6313 369.865 34.6313C371.875 34.6313 373.372 36.0532 373.372 38.1313C373.372 40.1958 371.875 41.6108 369.865 41.6108ZM369.865 40.5718C371.178 40.5718 372.224 39.5669 372.224 38.1313C372.224 36.6753 371.185 35.6772 369.865 35.6772C368.444 35.6772 367.487 36.771 367.487 38.1313C367.487 39.478 368.457 40.5718 369.865 40.5718ZM378.534 34.6313C378.637 34.6313 378.733 34.6313 378.815 34.645V35.896C378.651 35.8823 378.48 35.8755 378.364 35.8755C377.072 35.8755 376.292 36.8735 376.292 38.2407V41.522H375.157V34.7134H376.292V35.9028H376.32C376.825 35.0962 377.612 34.6313 378.534 34.6313Z" fill="#72747D"/>
<path d="M387.626 41.6548C385.314 41.6548 383.611 40.022 383.611 37.6235C383.611 35.2251 385.306 33.5767 387.728 33.5767C388.97 33.5767 390.259 34.0845 391.048 35.0767L389.634 36.2954C389.212 35.8032 388.603 35.4595 387.814 35.4595C386.572 35.4595 385.743 36.3423 385.743 37.6157C385.743 38.8892 386.595 39.7798 387.837 39.7798C388.665 39.7798 389.282 39.4048 389.65 38.9907L391.079 40.2563C390.407 41.0376 389.204 41.6548 387.626 41.6548ZM397.236 33.5767H397.228C398.916 33.5767 400.111 34.4438 400.111 36.8267V41.5298H398.01V37.3579C398.01 35.936 397.486 35.4673 396.486 35.4673C395.369 35.4673 394.658 36.1626 394.658 37.5688V41.522H392.564V29.7485H394.658V34.6626H394.689C395.33 33.936 396.236 33.5767 397.236 33.5767ZM405.862 41.6548C403.377 41.6548 401.705 39.9517 401.705 37.6235C401.705 35.2954 403.377 33.5767 405.862 33.5767C408.299 33.5767 410.026 35.2251 410.026 37.6235C410.026 40.022 408.299 41.6548 405.862 41.6548ZM405.862 39.7876V39.7798C406.995 39.7798 407.893 38.8892 407.893 37.6235C407.893 36.3423 407.018 35.4595 405.862 35.4595C404.643 35.4595 403.823 36.3892 403.823 37.6235C403.823 38.8423 404.666 39.7876 405.862 39.7876ZM415.464 41.6548C412.979 41.6548 411.308 39.9517 411.308 37.6235C411.308 35.2954 412.979 33.5767 415.464 33.5767C417.901 33.5767 419.628 35.2251 419.628 37.6235C419.628 40.022 417.901 41.6548 415.464 41.6548ZM415.464 39.7876V39.7798C416.597 39.7798 417.495 38.8892 417.495 37.6235C417.495 36.3423 416.62 35.4595 415.464 35.4595C414.245 35.4595 413.425 36.3892 413.425 37.6235C413.425 38.8423 414.269 39.7876 415.464 39.7876ZM423.871 41.6548H423.863C422.613 41.6548 421.55 41.2563 420.699 40.5142L421.714 39.0688C422.355 39.6626 423.027 39.9829 423.878 39.9829C424.488 39.9829 424.839 39.7095 424.839 39.3345C424.839 38.9751 424.433 38.7954 423.418 38.4673C422.128 38.0454 421.011 37.436 421.011 35.9282C421.011 34.5142 422.23 33.5845 423.824 33.5845C424.91 33.5845 425.793 33.8813 426.683 34.5688L425.668 36.1001C425.066 35.5298 424.378 35.272 423.808 35.272C423.464 35.272 423.043 35.4517 423.043 35.8579C423.043 36.186 423.449 36.4126 424.214 36.7017C425.91 37.3267 426.902 37.6938 426.902 39.2329C426.902 40.6157 425.918 41.6548 423.871 41.6548ZM435.738 37.5532V37.5454C435.738 37.7954 435.723 38.1548 435.684 38.2954H430.207C430.457 39.2251 431.199 39.7876 432.199 39.7954C433.02 39.8032 433.637 39.436 434.067 38.9126L435.426 40.1782C434.762 41.022 433.621 41.6548 432.051 41.6548C429.762 41.6548 428.027 40.0454 428.027 37.6079C428.027 35.2329 429.684 33.5767 431.902 33.5767C434.199 33.5767 435.738 35.2563 435.738 37.5532ZM431.973 35.4204C431.121 35.4204 430.457 35.8813 430.215 36.7876H433.66C433.449 35.9595 432.879 35.4204 431.973 35.4204ZM441.966 41.522V35.4517H441.138V33.7173H441.966V32.3735C441.966 30.5532 442.872 29.6157 444.419 29.6157C445.365 29.6157 446.091 29.9438 446.443 30.1782L446.021 31.8188C445.575 31.6001 445.146 31.4751 444.849 31.4751C444.357 31.4751 444.06 31.7642 444.06 32.5298V33.7173H445.802V35.4517H444.06V41.522H441.966ZM448.389 32.6157C447.67 32.6157 447.092 32.0454 447.092 31.3345C447.092 30.6392 447.67 30.061 448.389 30.061C449.099 30.061 449.693 30.6392 449.693 31.3345C449.693 32.0454 449.099 32.6157 448.389 32.6157ZM447.342 41.522V33.7095H449.435V41.522H447.342ZM451.772 41.522V29.7485H453.866V41.522H451.772ZM463.39 37.5532V37.5454C463.39 37.7954 463.374 38.1548 463.335 38.2954H457.858C458.108 39.2251 458.851 39.7876 459.851 39.7954C460.671 39.8032 461.288 39.436 461.718 38.9126L463.077 40.1782C462.413 41.022 461.272 41.6548 459.702 41.6548C457.413 41.6548 455.679 40.0454 455.679 37.6079C455.679 35.2329 457.335 33.5767 459.554 33.5767C461.851 33.5767 463.39 35.2563 463.39 37.5532ZM459.624 35.4204C458.772 35.4204 458.108 35.8813 457.866 36.7876H461.312C461.101 35.9595 460.53 35.4204 459.624 35.4204Z" fill="#0090C7"/>
</g>
</svg>
