<svg width="22" height="23" viewBox="0 0 22 23" fill="none" xmlns="http://www.w3.org/2000/svg">
<path fill-rule="evenodd" clip-rule="evenodd" d="M7.32861 15.6331C7.32861 15.2188 7.6644 14.8831 8.07861 14.8831H13.8936C14.3078 14.8831 14.6436 15.2188 14.6436 15.6331C14.6436 16.0473 14.3078 16.3831 13.8936 16.3831H8.07861C7.6644 16.3831 7.32861 16.0473 7.32861 15.6331Z" fill="#6C707A"/>
<path fill-rule="evenodd" clip-rule="evenodd" d="M5.80976 5.47521C5.39721 5.85734 5.0268 6.18578 4.69752 6.47601C4.65105 6.51697 4.60554 6.55704 4.56095 6.59631C4.28204 6.84191 4.03915 7.05579 3.82098 7.25719C3.31567 7.72364 2.99647 8.07583 2.77075 8.46972C2.31825 9.25932 2.1499 10.3665 2.1499 13.2106C2.1499 15.2666 2.27297 16.7427 2.55106 17.8129C2.82406 18.8634 3.23102 19.4654 3.77012 19.8524C4.33316 20.2565 5.13694 20.4973 6.34735 20.622C7.55656 20.7467 9.06492 20.7476 10.9859 20.7476C12.9069 20.7476 14.4152 20.7467 15.6245 20.622C16.8349 20.4973 17.6386 20.2565 18.2017 19.8524C18.7408 19.4654 19.1478 18.8634 19.4207 17.8129C19.6988 16.7427 19.8219 15.2666 19.8219 13.2106C19.8219 10.3664 19.6538 9.25922 19.2015 8.46959C18.9759 8.07574 18.6568 7.72356 18.1516 7.25714C17.9333 7.05556 17.6902 6.84147 17.411 6.59557C17.3666 6.55654 17.3214 6.5167 17.2752 6.47599C16.946 6.18576 16.5756 5.85732 16.163 5.47518C15.9188 5.27797 15.6658 5.06459 15.4036 4.84344C14.8325 4.36169 14.2176 3.8431 13.5543 3.3745C12.5694 2.67873 11.6774 2.24756 10.9579 2.24756C10.2408 2.24756 9.36095 2.67877 8.38903 3.37559C7.75474 3.83034 7.17452 4.32455 6.62932 4.78893C6.34766 5.02884 6.07534 5.26079 5.80976 5.47521ZM7.51502 2.15653C8.51535 1.43934 9.73203 0.747559 10.9579 0.747559C12.1804 0.747559 13.4069 1.43388 14.4198 2.14936C15.1357 2.65515 15.844 3.25205 16.4369 3.75172C16.6898 3.96485 16.9218 4.1603 17.1243 4.32343C17.1379 4.33437 17.1511 4.34578 17.1639 4.35764C17.5699 4.73418 17.9353 5.05826 18.2671 5.35073C18.3121 5.3904 18.3566 5.42961 18.4007 5.46839C18.6785 5.71309 18.9367 5.94046 19.1691 6.15504C19.7084 6.65293 20.1623 7.12913 20.5031 7.72402C21.1835 8.9119 21.3219 10.4237 21.3219 13.2106C21.3219 15.298 21.2001 16.9296 20.8725 18.1901C20.5399 19.4703 19.9804 20.4221 19.0764 21.071C18.1963 21.7027 17.0803 21.9799 15.7783 22.1141C14.4836 22.2476 12.8993 22.2476 11.0231 22.2476H10.9487C9.07248 22.2476 7.48821 22.2476 6.19355 22.1141C4.89155 21.9799 3.77552 21.7027 2.89543 21.071C1.99141 20.4221 1.43194 19.4703 1.09928 18.1901C0.771714 16.9296 0.649902 15.298 0.649902 13.2106C0.649902 10.4236 0.788555 8.9118 1.46931 7.7239C1.8102 7.12904 2.2642 6.65286 2.80355 6.15499C3.03573 5.94066 3.29366 5.71356 3.57121 5.46917C3.61555 5.43013 3.66038 5.39065 3.7057 5.35071C4.03752 5.05825 4.4029 4.73417 4.80892 4.35764C4.82174 4.34574 4.83498 4.3343 4.84861 4.32333C5.06073 4.15257 5.30829 3.9421 5.57983 3.71123C6.15381 3.22322 6.83495 2.64411 7.51502 2.15653Z" fill="#6C707A"/>
</svg>
