<svg width="25" height="24" viewBox="0 0 25 24" fill="none" xmlns="http://www.w3.org/2000/svg">
<path fill-rule="evenodd" clip-rule="evenodd" d="M12.5001 1.25C11.2403 1.25 10.0321 1.75044 9.1413 2.64124C8.2505 3.53204 7.75006 4.74022 7.75006 6C7.75006 7.25978 8.2505 8.46796 9.1413 9.35876C10.0321 10.2496 11.2403 10.75 12.5001 10.75C13.7598 10.75 14.968 10.2496 15.8588 9.35876C16.7496 8.46796 17.2501 7.25978 17.2501 6C17.2501 4.74022 16.7496 3.53204 15.8588 2.64124C14.968 1.75044 13.7598 1.25 12.5001 1.25ZM9.25006 6C9.25006 5.13805 9.59247 4.3114 10.202 3.7019C10.8115 3.09241 11.6381 2.75 12.5001 2.75C13.362 2.75 14.1887 3.09241 14.7982 3.7019C15.4076 4.3114 15.7501 5.13805 15.7501 6C15.7501 6.86195 15.4076 7.6886 14.7982 8.2981C14.1887 8.90759 13.362 9.25 12.5001 9.25C11.6381 9.25 10.8115 8.90759 10.202 8.2981C9.59247 7.6886 9.25006 6.86195 9.25006 6ZM12.5001 12.25C10.1871 12.25 8.05506 12.776 6.47606 13.664C4.92006 14.54 3.75006 15.866 3.75006 17.5V17.602C3.74906 18.764 3.74806 20.222 5.02706 21.264C5.65606 21.776 6.53706 22.141 7.72706 22.381C8.91906 22.623 10.4741 22.75 12.5001 22.75C14.5261 22.75 16.0801 22.623 17.2741 22.381C18.4641 22.141 19.3441 21.776 19.9741 21.264C21.2531 20.222 21.2511 18.764 21.2501 17.602V17.5C21.2501 15.866 20.0801 14.54 18.5251 13.664C16.9451 12.776 14.8141 12.25 12.5001 12.25ZM5.25006 17.5C5.25006 16.649 5.87206 15.725 7.21106 14.972C8.52706 14.232 10.3951 13.75 12.5011 13.75C14.6051 13.75 16.4731 14.232 17.7891 14.972C19.1291 15.725 19.7501 16.649 19.7501 17.5C19.7501 18.808 19.7101 19.544 19.0261 20.1C18.6561 20.402 18.0361 20.697 16.9761 20.911C15.9191 21.125 14.4741 21.25 12.5001 21.25C10.5261 21.25 9.08006 21.125 8.02406 20.911C6.96406 20.697 6.34406 20.402 5.97406 20.101C5.29006 19.544 5.25006 18.808 5.25006 17.5Z" fill="#ffffff"/>
</svg>
