<svg width="174" height="54" viewBox="0 0 174 54" fill="none" xmlns="http://www.w3.org/2000/svg">
<rect x="0.5" y="0.5" width="173" height="53" rx="4.5" fill="black"/>
<rect x="0.5" y="0.5" width="173" height="53" rx="4.5" stroke="#A6A6A6"/>
<path d="M87.8196 29.364C84.7881 29.364 82.3173 31.7792 82.3173 35.1056C82.3173 38.4117 84.7881 40.8471 87.8196 40.8471C90.8524 40.8471 93.3231 38.4117 93.3231 35.1056C93.3219 31.7792 90.8511 29.364 87.8196 29.364ZM87.8196 38.5872C86.1582 38.5872 84.7263 37.1522 84.7263 35.1069C84.7263 33.0401 86.1595 31.6266 87.8196 31.6266C89.481 31.6266 90.9129 33.0401 90.9129 35.1069C90.9129 37.1508 89.481 38.5872 87.8196 38.5872ZM75.8149 29.364C72.7834 29.364 70.3126 31.7792 70.3126 35.1056C70.3126 38.4117 72.7834 40.8471 75.8149 40.8471C78.8476 40.8471 81.3184 38.4117 81.3184 35.1056C81.3184 31.7792 78.8476 29.364 75.8149 29.364ZM75.8149 38.5872C74.1535 38.5872 72.7215 37.1522 72.7215 35.1069C72.7215 33.0401 74.1548 31.6266 75.8149 31.6266C77.4763 31.6266 78.9082 33.0401 78.9082 35.1069C78.9095 37.1508 77.4763 38.5872 75.8149 38.5872ZM61.5366 31.1271V33.5625H67.102C66.9357 34.9328 66.5001 35.9331 65.835 36.6284C65.0256 37.4762 63.7586 38.4117 61.5366 38.4117C58.1107 38.4117 55.4324 35.5187 55.4324 31.9304C55.4324 28.3421 58.1107 25.449 61.5366 25.449C63.3848 25.449 64.7343 26.2104 65.7306 27.1892L67.3714 25.4706C65.9794 24.0788 64.1324 23.0136 61.5366 23.0136C56.8437 23.0136 52.8984 27.015 52.8984 31.9304C52.8984 36.8457 56.8437 40.8471 61.5366 40.8471C64.0692 40.8471 65.9807 39.9764 67.4745 38.3456C69.0108 36.7364 69.489 34.4738 69.489 32.6472C69.489 32.0829 69.4478 31.5605 69.364 31.1258H61.5366V31.1271ZM119.934 33.0185C119.477 31.736 118.085 29.364 115.241 29.364C112.417 29.364 110.07 31.6914 110.07 35.1056C110.07 38.324 112.396 40.8471 115.51 40.8471C118.022 40.8471 119.476 39.2379 120.079 38.3024L118.21 36.9969C117.588 37.9541 116.736 38.5845 115.51 38.5845C114.286 38.5845 113.413 37.9973 112.852 36.8444L120.182 33.6692L119.934 33.0185ZM112.458 34.9328C112.396 32.7134 114.099 31.5834 115.324 31.5834C116.28 31.5834 117.089 32.0843 117.36 32.8011L112.458 34.9328ZM106.499 40.5002H108.907V23.6238H106.499V40.5002ZM102.553 30.6479H102.47C101.93 29.9729 100.892 29.364 99.5846 29.364C96.8431 29.364 94.3311 31.8872 94.3311 35.1285C94.3311 38.3469 96.8431 40.8485 99.5846 40.8485C100.893 40.8485 101.93 40.2396 102.47 39.5444H102.553V40.3706C102.553 42.567 101.432 43.7415 99.6258 43.7415C98.1513 43.7415 97.2375 42.6332 96.8637 41.6976L94.7667 42.6116C95.3686 44.133 96.9668 46.0041 99.6258 46.0041C102.45 46.0041 104.838 44.264 104.838 40.0223V29.7137H102.554V30.6479H102.553ZM99.7921 38.5872C98.1307 38.5872 96.74 37.1292 96.74 35.1285C96.74 33.1049 98.1307 31.6266 99.7921 31.6266C101.432 31.6266 102.719 33.1049 102.719 35.1285C102.719 37.1292 101.432 38.5872 99.7921 38.5872ZM131.216 23.6238H125.454V40.5002H127.858V34.1066H131.215C133.881 34.1066 136.502 32.0856 136.502 28.8659C136.502 25.6461 133.882 23.6238 131.216 23.6238ZM131.278 31.7576H127.858V25.9728H131.278C133.076 25.9728 134.097 27.5321 134.097 28.8659C134.097 30.1727 133.076 31.7576 131.278 31.7576ZM146.142 29.3343C144.401 29.3343 142.597 30.1376 141.851 31.9182L143.986 32.8511C144.442 31.9182 145.292 31.6131 146.183 31.6131C147.427 31.6131 148.691 32.3948 148.712 33.7839V33.9581C148.276 33.6975 147.343 33.3074 146.204 33.3074C143.903 33.3074 141.56 34.6317 141.56 37.1063C141.56 39.3648 143.447 40.8188 145.561 40.8188C147.177 40.8188 148.069 40.0587 148.628 39.1677H148.711V40.4705H151.033V33.9999C151.034 31.0056 148.897 29.3343 146.142 29.3343ZM145.851 38.5832C145.064 38.5832 143.965 38.1701 143.965 37.1495C143.965 35.8467 145.334 35.3472 146.516 35.3472C147.571 35.3472 148.07 35.5862 148.712 35.9115C148.525 37.4762 147.24 38.5832 145.851 38.5832ZM159.491 29.7029L156.734 37.0199H156.651L153.79 29.7029H151.199L155.49 39.9291L153.044 45.618H155.552L162.165 29.7029H159.491ZM137.83 40.5002H140.234V23.6238H137.83V40.5002Z" fill="white"/>
<path d="M61.1153 13.828C61.1153 14.9593 60.7956 15.8597 60.1551 16.532C59.4281 17.3312 58.4795 17.7308 57.3143 17.7308C56.1982 17.7308 55.2483 17.3258 54.4685 16.5158C53.6874 15.7045 53.2969 14.7001 53.2969 13.5013C53.2969 12.3011 53.6874 11.2967 54.4685 10.4867C55.2483 9.67537 56.1982 9.27038 57.3143 9.27038C57.8686 9.27038 58.3983 9.38378 58.901 9.60923C59.4049 9.83603 59.8083 10.1371 60.1099 10.5137L59.4307 11.2265C58.919 10.5853 58.214 10.2653 57.313 10.2653C56.4985 10.2653 55.7947 10.565 55.2006 11.1644C54.6064 11.7638 54.3099 12.5428 54.3099 13.4999C54.3099 14.4571 54.6064 15.236 55.2006 15.8354C55.7947 16.4348 56.4985 16.7345 57.313 16.7345C58.1766 16.7345 58.8971 16.4335 59.4732 15.83C59.847 15.4372 60.0635 14.8904 60.1215 14.1898H57.313V13.2164H61.0599C61.0985 13.4284 61.1153 13.6322 61.1153 13.828Z" fill="white"/>
<path d="M67.0572 10.445H63.5359V13.0127H66.7117V13.986H63.5359V16.5537H67.0572V17.55H62.5422V9.45H67.0572V10.445Z" fill="white"/>
<path d="M71.2472 17.55H70.2535V10.445H68.0933V9.45H73.4074V10.445H71.2472V17.55Z" fill="white"/>
<path d="M77.2521 17.55V9.45H78.2458V17.55H77.2521Z" fill="white"/>
<path d="M82.6527 17.55H81.659V10.445H79.4988V9.45H84.8129V10.445H82.6527V17.55Z" fill="white"/>
<path d="M94.8724 16.5037C94.112 17.3218 93.1672 17.7309 92.0368 17.7309C90.9065 17.7309 89.9617 17.3218 89.2026 16.5037C88.4421 15.6856 88.0632 14.6839 88.0632 13.5C88.0632 12.316 88.4421 11.3143 89.2026 10.4962C89.9617 9.67814 90.9065 9.26774 92.0368 9.26774C93.1608 9.26774 94.1042 9.67949 94.8673 10.5016C95.6303 11.3238 96.0118 12.3228 96.0118 13.5C96.0118 14.6839 95.6316 15.6856 94.8724 16.5037ZM89.936 15.8247C90.5082 16.4322 91.2081 16.7346 92.0368 16.7346C92.8656 16.7346 93.5668 16.4308 94.1377 15.8247C94.71 15.2172 94.9974 14.4423 94.9974 13.5C94.9974 12.5577 94.71 11.7828 94.1377 11.1753C93.5668 10.5678 92.8656 10.2654 92.0368 10.2654C91.2081 10.2654 90.5082 10.5691 89.936 11.1753C89.365 11.7828 89.0776 12.5577 89.0776 13.5C89.0776 14.4423 89.365 15.2172 89.936 15.8247Z" fill="white"/>
<path d="M97.4064 17.55V9.45H98.6154L102.374 15.7505H102.416L102.374 14.1899V9.45H103.367V17.55H102.33L98.3975 10.9431H98.355L98.3975 12.5037V17.55H97.4064Z" fill="white"/>
<path d="M61.1153 13.828C61.1153 14.9593 60.7956 15.8597 60.1551 16.532C59.4281 17.3312 58.4795 17.7308 57.3143 17.7308C56.1982 17.7308 55.2483 17.3258 54.4685 16.5158C53.6874 15.7045 53.2969 14.7001 53.2969 13.5013C53.2969 12.3011 53.6874 11.2967 54.4685 10.4867C55.2483 9.67537 56.1982 9.27038 57.3143 9.27038C57.8686 9.27038 58.3983 9.38378 58.901 9.60923C59.4049 9.83603 59.8083 10.1371 60.1099 10.5137L59.4307 11.2265C58.919 10.5853 58.214 10.2653 57.313 10.2653C56.4985 10.2653 55.7947 10.565 55.2006 11.1644C54.6064 11.7638 54.3099 12.5428 54.3099 13.4999C54.3099 14.4571 54.6064 15.236 55.2006 15.8354C55.7947 16.4348 56.4985 16.7345 57.313 16.7345C58.1766 16.7345 58.8971 16.4335 59.4732 15.83C59.847 15.4372 60.0635 14.8904 60.1215 14.1898H57.313V13.2164H61.0599C61.0985 13.4284 61.1153 13.6322 61.1153 13.828Z" stroke="white" stroke-width="0.2" stroke-miterlimit="10"/>
<path d="M67.0572 10.445H63.5359V13.0127H66.7117V13.986H63.5359V16.5537H67.0572V17.55H62.5422V9.45H67.0572V10.445Z" stroke="white" stroke-width="0.2" stroke-miterlimit="10"/>
<path d="M71.2472 17.55H70.2535V10.445H68.0933V9.45H73.4074V10.445H71.2472V17.55Z" stroke="white" stroke-width="0.2" stroke-miterlimit="10"/>
<path d="M77.2521 17.55V9.45H78.2458V17.55H77.2521Z" stroke="white" stroke-width="0.2" stroke-miterlimit="10"/>
<path d="M82.6527 17.55H81.659V10.445H79.4988V9.45H84.8129V10.445H82.6527V17.55Z" stroke="white" stroke-width="0.2" stroke-miterlimit="10"/>
<path d="M94.8724 16.5037C94.112 17.3218 93.1672 17.7309 92.0368 17.7309C90.9065 17.7309 89.9617 17.3218 89.2026 16.5037C88.4421 15.6856 88.0632 14.6839 88.0632 13.5C88.0632 12.316 88.4421 11.3143 89.2026 10.4962C89.9617 9.67814 90.9065 9.26774 92.0368 9.26774C93.1608 9.26774 94.1042 9.67949 94.8673 10.5016C95.6303 11.3238 96.0118 12.3228 96.0118 13.5C96.0118 14.6839 95.6316 15.6856 94.8724 16.5037ZM89.936 15.8247C90.5082 16.4322 91.2081 16.7346 92.0368 16.7346C92.8656 16.7346 93.5668 16.4308 94.1377 15.8247C94.71 15.2172 94.9974 14.4423 94.9974 13.5C94.9974 12.5577 94.71 11.7828 94.1377 11.1753C93.5668 10.5678 92.8656 10.2654 92.0368 10.2654C91.2081 10.2654 90.5082 10.5691 89.936 11.1753C89.365 11.7828 89.0776 12.5577 89.0776 13.5C89.0776 14.4423 89.365 15.2172 89.936 15.8247Z" stroke="white" stroke-width="0.2" stroke-miterlimit="10"/>
<path d="M97.4064 17.55V9.45H98.6154L102.374 15.7505H102.416L102.374 14.1899V9.45H103.367V17.55H102.33L98.3975 10.9431H98.355L98.3975 12.5037V17.55H97.4064Z" stroke="white" stroke-width="0.2" stroke-miterlimit="10"/>
<g filter="url(#filter0_ii_641_15520)">
<path d="M13.4483 10.1763C13.0733 10.5921 12.8516 11.2374 12.8516 12.0731V41.9297C12.8516 42.7667 13.0733 43.4106 13.4483 43.8264L13.5437 43.9236L29.5117 27.1985V27.0014V26.8043L13.5437 10.0778L13.4483 10.1763Z" fill="url(#paint0_linear_641_15520)"/>
<path d="M34.8296 32.7753L29.5078 27.1984V27.0013V26.8042L34.8309 21.2287L34.9508 21.3003L41.2573 25.0533C43.0579 26.1252 43.0579 27.8788 41.2573 28.9521L34.9508 32.7051L34.8296 32.7753Z" fill="url(#paint1_linear_641_15520)"/>
<g filter="url(#filter1_i_641_15520)">
<path d="M34.9517 32.7037L29.5074 27.0013L13.4453 43.8264C14.0382 44.4852 15.019 44.5662 16.1236 43.9101L34.9517 32.7037Z" fill="url(#paint2_linear_641_15520)"/>
</g>
<path d="M34.9517 21.299L16.1236 10.094C15.019 9.4365 14.0382 9.51885 13.4453 10.1777L29.5087 27.0027L34.9517 21.299Z" fill="url(#paint3_linear_641_15520)"/>
</g>
<defs>
<filter id="filter0_ii_641_15520" x="12.8516" y="9.64025" width="29.7578" height="34.723" filterUnits="userSpaceOnUse" color-interpolation-filters="sRGB">
<feFlood flood-opacity="0" result="BackgroundImageFix"/>
<feBlend mode="normal" in="SourceGraphic" in2="BackgroundImageFix" result="shape"/>
<feColorMatrix in="SourceAlpha" type="matrix" values="0 0 0 0 0 0 0 0 0 0 0 0 0 0 0 0 0 0 127 0" result="hardAlpha"/>
<feOffset dy="-0.15"/>
<feComposite in2="hardAlpha" operator="arithmetic" k2="-1" k3="1"/>
<feColorMatrix type="matrix" values="0 0 0 0 0 0 0 0 0 0 0 0 0 0 0 0 0 0 0.12 0"/>
<feBlend mode="normal" in2="shape" result="effect1_innerShadow_641_15520"/>
<feColorMatrix in="SourceAlpha" type="matrix" values="0 0 0 0 0 0 0 0 0 0 0 0 0 0 0 0 0 0 127 0" result="hardAlpha"/>
<feOffset dy="0.15"/>
<feComposite in2="hardAlpha" operator="arithmetic" k2="-1" k3="1"/>
<feColorMatrix type="matrix" values="0 0 0 0 1 0 0 0 0 1 0 0 0 0 1 0 0 0 0.25 0"/>
<feBlend mode="normal" in2="effect1_innerShadow_641_15520" result="effect2_innerShadow_641_15520"/>
</filter>
<filter id="filter1_i_641_15520" x="13.4453" y="27.0013" width="21.5078" height="17.3619" filterUnits="userSpaceOnUse" color-interpolation-filters="sRGB">
<feFlood flood-opacity="0" result="BackgroundImageFix"/>
<feBlend mode="normal" in="SourceGraphic" in2="BackgroundImageFix" result="shape"/>
<feColorMatrix in="SourceAlpha" type="matrix" values="0 0 0 0 0 0 0 0 0 0 0 0 0 0 0 0 0 0 127 0" result="hardAlpha"/>
<feOffset dy="-0.15"/>
<feComposite in2="hardAlpha" operator="arithmetic" k2="-1" k3="1"/>
<feColorMatrix type="matrix" values="0 0 0 0 0 0 0 0 0 0 0 0 0 0 0 0 0 0 0.08 0"/>
<feBlend mode="normal" in2="shape" result="effect1_innerShadow_641_15520"/>
</filter>
<linearGradient id="paint0_linear_641_15520" x1="28.0963" y1="11.7572" x2="5.46487" y2="33.3641" gradientUnits="userSpaceOnUse">
<stop stop-color="#00A0FF"/>
<stop offset="0.0066" stop-color="#00A1FF"/>
<stop offset="0.2601" stop-color="#00BEFF"/>
<stop offset="0.5122" stop-color="#00D2FF"/>
<stop offset="0.7604" stop-color="#00DFFF"/>
<stop offset="1" stop-color="#00E3FF"/>
</linearGradient>
<linearGradient id="paint1_linear_641_15520" x1="43.6012" y1="27.0013" x2="12.4153" y2="27.0013" gradientUnits="userSpaceOnUse">
<stop stop-color="#FFE000"/>
<stop offset="0.4087" stop-color="#FFBD00"/>
<stop offset="0.7754" stop-color="#FFA500"/>
<stop offset="1" stop-color="#FF9C00"/>
</linearGradient>
<linearGradient id="paint2_linear_641_15520" x1="31.9951" y1="30.0981" x2="1.3041" y2="59.3998" gradientUnits="userSpaceOnUse">
<stop stop-color="#FF3A44"/>
<stop offset="1" stop-color="#C31162"/>
</linearGradient>
<linearGradient id="paint3_linear_641_15520" x1="9.4" y1="0.238682" x2="23.1044" y2="13.3227" gradientUnits="userSpaceOnUse">
<stop stop-color="#32A071"/>
<stop offset="0.0685" stop-color="#2DA771"/>
<stop offset="0.4762" stop-color="#15CF74"/>
<stop offset="0.8009" stop-color="#06E775"/>
<stop offset="1" stop-color="#00F076"/>
</linearGradient>
</defs>
</svg>
